<?xml version="1.0" encoding="UTF-8"?>
<svg version="1.1" xmlns="http://www.w3.org/2000/svg" width="622" height="267">
<path d="M0 0 C0.7950293 0.00604248 1.59005859 0.01208496 2.40917969 0.01831055 C11.152579 0.16630612 18.74469575 1.43171956 26.0625 6.625 C27.125 8.25 27.125 8.25 26.875 10.75 C26.32217158 12.59276141 25.73339041 14.42482878 25.125 16.25 C24.465 16.25 23.805 16.25 23.125 16.25 C22.8775 17.054375 22.63 17.85875 22.375 18.6875 C21.125 21.25 21.125 21.25 19.25 22.25 C16.34514474 22.25 15.34626305 21.06739704 13.125 19.25 C7.57520952 16.39582204 1.08480383 15.46509667 -4.9375 17.1875 C-5.906875 17.538125 -6.87625 17.88875 -7.875 18.25 C-7.545 19.24 -7.215 20.23 -6.875 21.25 C-7.535 21.25 -8.195 21.25 -8.875 21.25 C-8.875 21.91 -8.875 22.57 -8.875 23.25 C-8.215 23.58 -7.555 23.91 -6.875 24.25 C-6.31039063 24.9615625 -6.31039063 24.9615625 -5.734375 25.6875 C-2.92445554 28.04877685 0.36889007 28.49503472 3.875 29.25 C21.15763447 33.05475908 21.15763447 33.05475908 25.9375 39.8125 C27.125 42.25 27.125 42.25 27.125 44.25 C27.785 44.25 28.445 44.25 29.125 44.25 C29.62 46.23 29.62 46.23 30.125 48.25 C30.10179687 47.35539062 30.07859375 46.46078125 30.0546875 45.5390625 C29.94428978 38.14241536 30.27025796 31.41314166 32.125 24.25 C32.35896484 23.2290625 32.35896484 23.2290625 32.59765625 22.1875 C33.49118037 18.58336908 34.48995093 16.76469827 37.125 14.25 C37.85396484 13.32574219 37.85396484 13.32574219 38.59765625 12.3828125 C43.7513436 5.87422455 49.97419168 2.00280114 58.125 0.25 C61.06008625 0.03632371 63.99534163 0.06489006 66.9375 0.0625 C68.11022461 0.04413086 68.11022461 0.04413086 69.30664062 0.02539062 C74.30067822 0.01287424 78.39054074 0.65077678 83.125 2.25 C83.125 2.91 83.125 3.57 83.125 4.25 C84.2078125 4.5903125 84.2078125 4.5903125 85.3125 4.9375 C91.62768649 7.88458703 95.94828511 14.1991145 99.125 20.25 C99.125 21.57 99.125 22.89 99.125 24.25 C99.785 24.25 100.445 24.25 101.125 24.25 C101.455 30.85 101.785 37.45 102.125 44.25 C99.75134772 45.43682614 98.26408181 45.39302459 95.61523438 45.42358398 C94.21368103 45.44381874 94.21368103 45.44381874 92.78381348 45.46446228 C91.77234253 45.47490067 90.76087158 45.48533905 89.71875 45.49609375 C87.59244363 45.52902135 85.46614165 45.56223318 83.33984375 45.59570312 C79.97545286 45.64321721 76.61108113 45.68766194 73.24658203 45.72680664 C70.00795063 45.76638307 66.76968313 45.81795228 63.53125 45.87109375 C62.51977905 45.8795079 61.50830811 45.88792206 60.46618652 45.89659119 C59.06463318 45.92155418 59.06463318 45.92155418 57.63476562 45.94702148 C56.81028931 45.95732895 55.98581299 45.96763641 55.13635254 45.97825623 C52.8970336 46.0739219 52.8970336 46.0739219 51.125 48.25 C51.62 48.70375 52.115 49.1575 52.625 49.625 C54.125 51.25 54.125 51.25 54.125 53.25 C54.785 53.58 55.445 53.91 56.125 54.25 C57.75 55.6875 57.75 55.6875 59.125 57.25 C59.125 57.91 59.125 58.57 59.125 59.25 C60.135625 59.229375 61.14625 59.20875 62.1875 59.1875 C66.125 59.25 66.125 59.25 69.6875 59.8125 C73.13386468 60.25112823 75.75124974 59.99057933 79.125 59.25 C79.125 58.59 79.125 57.93 79.125 57.25 C80.79166667 56.58333333 82.45833333 55.91666667 84.125 55.25 C85.4553125 54.6621875 85.4553125 54.6621875 86.8125 54.0625 C87.575625 53.794375 88.33875 53.52625 89.125 53.25 C89.785 53.58 90.445 53.91 91.125 54.25 C91.125 54.91 91.125 55.57 91.125 56.25 C91.723125 56.518125 92.32125 56.78625 92.9375 57.0625 C95.16737457 58.27300334 96.57990692 59.241379 98.125 61.25 C98.125 65.25 98.125 65.25 95.9375 67.9375 C93.12535037 70.24971192 91.68550965 70.94481346 88.125 71.25 C88.125 71.91 88.125 72.57 88.125 73.25 C77.56201489 78.36038589 65.35151354 79.32980987 54.125 75.6875 C44.21196967 71.38533509 37.14314638 64.46509741 32.96484375 54.4765625 C32.68769531 53.74179688 32.41054688 53.00703125 32.125 52.25 C31.63 53.24 31.63 53.24 31.125 54.25 C30.465 54.25 29.805 54.25 29.125 54.25 C29.455 55.24 29.785 56.23 30.125 57.25 C27.50964337 64.65314658 24.25905826 70.7187109 17.125 74.25 C10.93590406 76.82531835 5.30500859 77.77275943 -1.375 77.6875 C-2.62990234 77.67614014 -2.62990234 77.67614014 -3.91015625 77.66455078 C-10.07637584 77.49929803 -14.60161888 76.53963283 -19.875 73.25 C-21.89357432 72.16246325 -23.91449685 71.07927602 -25.9375 70 C-27.58527565 69.0868294 -29.23181781 68.17141057 -30.875 67.25 C-30.0331138 63.25754999 -28.32906841 60.52209122 -25.875 57.25 C-25.215 57.25 -24.555 57.25 -23.875 57.25 C-23.545 55.93 -23.215 54.61 -22.875 53.25 C-20.625 53 -20.625 53 -17.875 53.25 C-16.54166667 54.58333333 -15.20833333 55.91666667 -13.875 57.25 C-10.40794462 58.49061217 -10.40794462 58.49061217 -6.875 59.25 C-6.215 59.45625 -5.555 59.6625 -4.875 59.875 C-1.02470118 60.59693103 2.67041548 60.68244405 6.4375 59.5625 C8.70998124 57.79501459 9.27173232 55.95201431 10.125 53.25 C7.72752896 50.27713591 6.49907235 49.32481447 2.6875 48.5625 C0.9240625 48.4078125 0.9240625 48.4078125 -0.875 48.25 C-2.54434283 47.93033861 -4.2123217 47.60268934 -5.875 47.25 C-5.875 46.59 -5.875 45.93 -5.875 45.25 C-8.845 44.92 -11.815 44.59 -14.875 44.25 C-14.875 43.59 -14.875 42.93 -14.875 42.25 C-15.98875 41.981875 -17.1025 41.71375 -18.25 41.4375 C-23.13680766 39.83664922 -24.44305326 36.58520941 -26.875 32.25 C-28.81951351 25.9828855 -28.58659252 18.38311411 -26.84375 12.078125 C-24.91321537 8.43501933 -21.42298964 6.2013943 -17.875 4.25 C-17.215 4.25 -16.555 4.25 -15.875 4.25 C-15.875 3.59 -15.875 2.93 -15.875 2.25 C-10.45094649 0.43718636 -5.70201109 -0.06914079 0 0 Z M58.125 17.25 C58.125 17.91 58.125 18.57 58.125 19.25 C57.526875 19.476875 56.92875 19.70375 56.3125 19.9375 C53.50354741 21.62287155 52.57882361 23.34235279 51.125 26.25 C50.795 27.57 50.465 28.89 50.125 30.25 C60.355 30.25 70.585 30.25 81.125 30.25 C81.1900187 24.014752 81.1900187 24.014752 77.61328125 19.57421875 C74.39266426 16.70863041 71.38917047 15.38168442 67.125 14.9375 C63.88837457 15.27464848 61.15940811 16.094035 58.125 17.25 Z M29.125 51.25 C30.125 53.25 30.125 53.25 30.125 53.25 Z " fill="#102036" transform="translate(448.875,110.75)"/>
<path d="M0 0 C6.42383752 3.88494433 11.63047301 9.49626137 13.9453125 16.7265625 C15.22627035 23.50399403 15.2044519 30.63373322 12.375 37 C6.66809366 37.99250545 1.16091511 38.10477512 -4.625 38 C-5.6796875 36.109375 -5.6796875 36.109375 -6.625 34 C-5.95833333 32.66666667 -5.29166667 31.33333333 -4.625 30 C-4.22479842 26.41300803 -4.30755663 23.09662255 -5.3125 19.625 C-7.21317732 17.27178046 -8.68777249 16.71798895 -11.625 16 C-14.99579485 16.17435146 -17.58612867 16.43029637 -20.5625 18.0625 C-22.37004344 21.35860863 -22.3797157 24.42160659 -21.625 28 C-20.09084239 31.05485771 -17.87592639 33.44489437 -15.625 36 C-14.61990802 37.17346461 -13.61611539 38.34804277 -12.61328125 39.5234375 C-7.15029714 45.89611393 -1.61414962 52.19731226 4.08203125 58.36328125 C5.375 60 5.375 60 5.375 62 C6.035 62 6.695 62 7.375 62 C8.74810707 63.29233607 10.08534824 64.62437146 11.375 66 C15.95769886 60.42106225 15.65647931 54.82053744 16.09375 47.80078125 C16.375 45 16.375 45 17.375 44 C20.07154854 43.92680379 22.74191458 43.90757463 25.4375 43.9375 C26.57541992 43.94426758 26.57541992 43.94426758 27.73632812 43.95117188 C29.61591871 43.9629932 31.49546899 43.98092922 33.375 44 C37.00577784 54.89233351 32.19114198 69.19853629 27.5 79.0625 C26.1399581 81.82418811 26.1399581 81.82418811 26.8125 84.125 C28.47916667 86.23958333 28.47916667 86.23958333 31.375 88.5 C34.09363824 90.76553187 35.07750371 91.86438397 36.375 95 C37.035 95.66 37.695 96.32 38.375 97 C39.365 97 40.355 97 41.375 97 C41.375 98.98 41.375 100.96 41.375 103 C42.035 103 42.695 103 43.375 103 C42.88 104.485 42.88 104.485 42.375 106 C39.14631254 106.14584064 35.91847635 106.23424106 32.6875 106.3125 C31.77548828 106.35439453 30.86347656 106.39628906 29.92382812 106.43945312 C23.07867484 106.56391046 23.07867484 106.56391046 19.54296875 103.73046875 C18.82753906 102.82941406 18.11210937 101.92835938 17.375 101 C15.72635455 99.64444707 14.06496005 98.30368347 12.375 97 C11.44558594 97.55429688 10.51617187 98.10859375 9.55859375 98.6796875 C8.31013501 99.41186631 7.06142348 100.14361421 5.8125 100.875 C4.89887695 101.42220703 4.89887695 101.42220703 3.96679688 101.98046875 C-5.52819322 107.50665346 -16.09401863 108.7795498 -26.83203125 106.2421875 C-31.90989746 104.47778529 -36.35299126 102.30109766 -40.625 99 C-41.2334375 98.54625 -41.841875 98.0925 -42.46875 97.625 C-46.51833662 94.43844003 -48.46382468 92.17250824 -49.625 87 C-49.99625 85.948125 -50.3675 84.89625 -50.75 83.8125 C-53.08462273 73.64021525 -51.24819733 65.24639467 -46.625 56 C-45.965 56 -45.305 56 -44.625 56 C-44.625 55.34 -44.625 54.68 -44.625 54 C-43.965 54 -43.305 54 -42.625 54 C-42.315625 53.13375 -42.315625 53.13375 -42 52.25 C-40.12749112 49.18589456 -37.65541481 47.84460032 -34.625 46 C-35.75197043 41.03088634 -35.75197043 41.03088634 -38.625 37 C-42.07589625 30.5041953 -42.19116654 23.24560457 -40.4375 16.25 C-37.70981429 7.63051315 -33.37733346 3.38299516 -25.625 -1 C-18.05847193 -3.52217602 -7.28666055 -3.3561435 0 0 Z M-27.625 61 C-27.625 61.66 -27.625 62.32 -27.625 63 C-28.285 63 -28.945 63 -29.625 63 C-32.67994947 66.91033532 -33.77480798 71.08442571 -33.625 76 C-32.03449733 81.2133143 -29.85205141 84.55937676 -25.625 88 C-20.20235948 90.84043075 -14.47872078 90.05656678 -8.625 89 C-5.28542438 87.8230149 -2.75505389 86.91481059 -0.625 84 C-0.625 82.68 -0.625 81.36 -0.625 80 C-1.285 80 -1.945 80 -2.625 80 C-2.99044922 79.15695313 -2.99044922 79.15695313 -3.36328125 78.296875 C-4.86680936 75.55980215 -6.69199748 73.54204059 -8.8125 71.25 C-12.37767358 67.3743113 -15.83746881 63.43851248 -19.21484375 59.3984375 C-22.17410405 56.46376939 -24.70379113 59.00127814 -27.625 61 Z " fill="#5C288B" transform="translate(291.625,81)"/>
<path d="M0 0 C0.33 0.66 0.66 1.32 1 2 C1.66 2.33 2.32 2.66 3 3 C2.99333817 3.84667236 2.98667633 4.69334473 2.97981262 5.56567383 C2.91954821 13.56873348 2.87394792 21.57171623 2.84456348 29.57495117 C2.82894847 33.68890105 2.80778698 37.80266247 2.77368164 41.91650391 C2.74093869 45.89116249 2.72311571 49.86564048 2.71536827 53.84042358 C2.70985143 55.35219157 2.69907866 56.86395036 2.68280983 58.37564087 C2.60252003 66.14963092 2.62153775 72.85674285 6 80 C6 80.66 6 81.32 6 82 C6.99 82 7.98 82 9 82 C9.4125 82.61875 9.825 83.2375 10.25 83.875 C12.71919346 86.87330634 15.29331574 87.47884931 19 88 C25.5549703 88.42691801 31.87877262 88.58451823 38 86 C38.495 84.515 38.495 84.515 39 83 C39.66 83 40.32 83 41 83 C45.28683851 72.88032499 45.27897493 62.54694914 45.1953125 51.70703125 C45.19157278 50.26543882 45.18873035 48.82384382 45.18673706 47.38224792 C45.17917596 43.62581102 45.15959415 39.86953386 45.1373291 36.11315918 C45.11670658 32.26491455 45.10770061 28.41664358 45.09765625 24.56835938 C45.07633948 17.04550084 45.04229699 9.52277298 45 2 C47.73420509 0.63289746 50.20720242 0.57996052 53.25 0.3125 C54.36890625 0.20550781 55.4878125 0.09851563 56.640625 -0.01171875 C60.19968906 0.00069659 62.67519782 0.80920412 66 2 C66.04661874 10.90232953 66.08201775 19.80461617 66.10362434 28.70704174 C66.11400148 32.8420923 66.1280478 36.97705851 66.15087891 41.11206055 C66.17282631 45.11266709 66.18461409 49.1131932 66.18975449 53.11385536 C66.19341138 54.62984798 66.20055058 56.14583688 66.21146011 57.66179466 C66.27551829 66.94376312 65.74340751 75.84726503 64 85 C63.34 85 62.68 85 62 85 C61.7525 85.86625 61.505 86.7325 61.25 87.625 C59.91652266 91.22538882 58.33454766 93.95801365 56 97 C54.515 97.495 54.515 97.495 53 98 C52.59523438 98.62519531 52.19046875 99.25039062 51.7734375 99.89453125 C49.26336317 102.87455342 46.2467034 103.63108142 42.625 104.6875 C41.91110107 104.90027588 41.19720215 105.11305176 40.46166992 105.33227539 C26.43292019 109.3054473 12.51876653 108.87043874 -0.6875 102.36328125 C-3.63630279 100.62488231 -5.79993262 98.61258001 -8 96 C-8.48339844 95.55527344 -8.96679688 95.11054688 -9.46484375 94.65234375 C-11.32209036 92.65332259 -12.36279056 90.63580987 -13.5625 88.1875 C-13.97628906 87.35605469 -14.39007813 86.52460938 -14.81640625 85.66796875 C-17.28598988 80.10121753 -18.2495443 75.56766759 -18.24291992 69.44995117 C-18.24481827 68.71916351 -18.24671661 67.98837585 -18.24867249 67.23544312 C-18.25235532 64.83783998 -18.24171602 62.4405446 -18.23046875 60.04296875 C-18.22927594 58.37242163 -18.228824 56.70187382 -18.2290802 55.03132629 C-18.22751991 51.54045377 -18.21926165 48.04968447 -18.20581055 44.55883789 C-18.1887554 40.07506911 -18.18499832 35.5914129 -18.18575573 31.10761547 C-18.18548454 27.66336484 -18.18001262 24.21913902 -18.17275429 20.77489662 C-18.16956457 19.12061056 -18.16759951 17.46632168 -18.16686058 15.8120327 C-18.16470393 13.50899782 -18.15597646 11.20608502 -18.14526367 8.90307617 C-18.14145187 7.59102707 -18.13764008 6.27897797 -18.13371277 4.9271698 C-18 2 -18 2 -17 1 C-14.14122091 0.76298761 -11.30116703 0.57780818 -8.4375 0.4375 C-7.22803711 0.37272461 -7.22803711 0.37272461 -5.99414062 0.30664062 C-3.99631195 0.20024738 -1.9981793 0.09959112 0 0 Z " fill="#102037" transform="translate(349,81)"/>
<path d="M0 0 C0.39872742 2.4803772 0.39872742 2.4803772 0.43237305 5.64306641 C0.46206429 7.41467636 0.46206429 7.41467636 0.49235535 9.22207642 C0.49874527 10.50230682 0.50513519 11.78253723 0.51171875 13.1015625 C0.53864555 15.06166763 0.53864555 15.06166763 0.56611633 17.06137085 C0.61369103 20.53669199 0.6434515 24.01194789 0.66955566 27.48748779 C0.69932394 31.03345633 0.74586691 34.57919984 0.79101562 38.125 C0.87713322 45.08320532 0.94444062 52.04148548 1 59 C3.21426719 59.23497888 3.21426719 59.23497888 4.91796875 57.09375 C5.66691406 56.2378125 6.41585937 55.381875 7.1875 54.5 C7.991875 53.58476562 8.79625 52.66953125 9.625 51.7265625 C10.800625 50.37691406 10.800625 50.37691406 12 49 C12.9590625 47.92878906 12.9590625 47.92878906 13.9375 46.8359375 C14.80375 45.86527344 14.80375 45.86527344 15.6875 44.875 C16.26371094 44.24207031 16.83992188 43.60914063 17.43359375 42.95703125 C19.0756803 41.05072744 19.0756803 41.05072744 20.09765625 38.76171875 C21.52069947 36.04587694 22.43067004 34.73150498 25 33 C32.16972961 31.34479138 41.4436215 30.26910402 48 34 C47.525625 34.433125 47.05125 34.86625 46.5625 35.3125 C44.76313043 37.02309613 44.76313043 37.02309613 44 40 C43.34 40 42.68 40 42 40 C41.67 40.99 41.34 41.98 41 43 C40.34 43 39.68 43 39 43 C38.731875 43.5775 38.46375 44.155 38.1875 44.75 C36.97070811 47.05550043 35.69666121 49.02056192 34 51 C33.34 51 32.68 51 32 51 C31.7525 51.53625 31.505 52.0725 31.25 52.625 C27.14285714 60.42857143 27.14285714 60.42857143 24 62 C23.34 62.99 22.68 63.98 22 65 C21.67 65.33 21.34 65.66 21 66 C23.17199243 69.73119703 25.53326509 73.251619 28.0625 76.75 C28.75472656 77.71421875 29.44695312 78.6784375 30.16015625 79.671875 C31.78872388 82.07122196 31.78872388 82.07122196 34 83 C34 83.66 34 84.32 34 85 C34.99 85.33 35.98 85.66 37 86 C37 86.66 37 87.32 37 88 C37.433125 88.433125 37.86625 88.86625 38.3125 89.3125 C40.33092676 91.33092676 41.55412773 93.54830355 43 96 C43.99 96.99 43.99 96.99 45 98 C47.34984273 100.83939329 48.74900067 103.53569417 50 107 C49.34 107.66 48.68 108.32 48 109 C47.67 108.67 47.34 108.34 47 108 C43.47310721 108.07568439 39.95487342 108.17685423 36.43359375 108.390625 C32.29117935 108.50509586 30.58012546 108.45838082 27.2265625 105.80859375 C26.49179688 104.88175781 25.75703125 103.95492187 25 103 C24.27039063 102.16082031 23.54078125 101.32164062 22.7890625 100.45703125 C18.45409967 95.15961277 14.36723341 89.81534761 10.60546875 84.09375 C8.94093788 81.92297495 7.25603329 80.52685984 5 79 C2.43156935 81.28024059 1.11184322 83.12957515 0.66992188 86.56884766 C0.60652867 89.65824384 0.65189386 92.72404333 0.75 95.8125 C0.77707031 97.42415039 0.77707031 97.42415039 0.8046875 99.06835938 C0.85170608 101.71315465 0.9174084 104.35611589 1 107 C-2.50165763 108.75082882 -6.72656398 108.03314834 -10.58984375 107.9609375 C-14.42003413 107.83579913 -14.42003413 107.83579913 -18 109 C-18.93374549 106.19876354 -19.12558027 104.51626101 -19.12698364 101.62179565 C-19.12980347 100.72721649 -19.13262329 99.83263733 -19.13552856 98.91094971 C-19.13350433 97.9321283 -19.1314801 96.95330688 -19.12939453 95.94482422 C-19.13114685 94.91211395 -19.13289917 93.87940369 -19.13470459 92.81539917 C-19.13911311 89.39514496 -19.13618903 85.97494226 -19.1328125 82.5546875 C-19.13348572 80.18482452 -19.1344559 77.81496162 -19.13571167 75.44509888 C-19.1371872 70.47690168 -19.13503832 65.50872245 -19.13037109 60.54052734 C-19.12466769 54.15658581 -19.1279576 47.77268626 -19.13394356 41.38874626 C-19.13754776 36.49561239 -19.13641134 31.60248856 -19.13381577 26.7093544 C-19.13314643 24.35450358 -19.13397515 21.99965186 -19.13629532 19.64480209 C-19.13882021 16.36197218 -19.13498385 13.07921144 -19.12939453 9.79638672 C-19.13141876 8.81351685 -19.13344299 7.83064697 -19.13552856 6.81799316 C-19.13270874 5.92905365 -19.12988892 5.04011414 -19.12698364 4.12423706 C-19.12660662 3.34737486 -19.12622959 2.57051266 -19.12584114 1.77010918 C-19 0 -19 0 -18 -1 C-15.53368043 -1.29136711 -13.09987895 -1.5149945 -10.625 -1.6875 C-9.93921875 -1.74744141 -9.2534375 -1.80738281 -8.546875 -1.86914062 C-4.7198515 -2.14090397 -3.28653816 -2.19102544 0 0 Z " fill="#102037" transform="translate(194,79)"/>
<path d="M0 0 C0.67289063 0.01869141 1.34578125 0.03738281 2.0390625 0.05664062 C5.55557816 0.25392546 7.35635244 0.59003948 10.1015625 2.86328125 C10.85566406 3.82814453 10.85566406 3.82814453 11.625 4.8125 C12.17285156 4.4515625 12.72070312 4.090625 13.28515625 3.71875 C21.63535131 -1.16916906 30.29698895 -1.78778007 39.66796875 0.58203125 C46.24808493 3.02163119 50.35034344 6.27185357 53.68457031 12.57128906 C59.07070632 25.40740758 57.97558778 39.58249176 57.8125 53.1875 C57.79742134 55.38801164 57.78373858 57.58853332 57.77148438 59.7890625 C57.7413172 65.13066408 57.68255174 70.47084607 57.625 75.8125 C51.025 75.8125 44.425 75.8125 37.625 75.8125 C36.71480996 73.08192988 36.5106609 71.57281034 36.54321289 68.77514648 C36.5497438 67.96677841 36.55627472 67.15841034 36.56300354 66.32554626 C36.57443893 65.45370193 36.58587433 64.5818576 36.59765625 63.68359375 C36.61031456 61.82487173 36.62267461 59.96614767 36.63476562 58.10742188 C36.65945879 55.18702756 36.68730715 52.26674101 36.72094727 49.34643555 C36.75144886 46.52131527 36.76902437 43.69632783 36.78515625 40.87109375 C36.79861588 40.01341904 36.8120755 39.15574432 36.82594299 38.27207947 C36.84960114 32.45735774 36.74323735 26.28994121 34.625 20.8125 C31.42556692 17.90096902 28.95583042 17.0623556 24.625 16.8125 C20.02866731 17.15262862 16.63693937 18.31480009 13.4230957 21.69580078 C9.53766118 26.47482946 9.78507917 31.2373461 9.85546875 37.1796875 C9.84413406 38.2550174 9.83279938 39.33034729 9.82112122 40.43826294 C9.79049307 43.85517227 9.80022768 47.27050044 9.8125 50.6875 C9.79834728 54.12541238 9.7760283 57.56316317 9.75032043 61.00100708 C9.73724021 63.1366122 9.73254911 65.27228765 9.73686218 67.40792847 C9.73628311 68.36627594 9.73570404 69.32462341 9.73510742 70.31201172 C9.73766037 71.15915741 9.74021332 72.0063031 9.74284363 72.87911987 C9.625 74.8125 9.625 74.8125 8.625 75.8125 C5.97299677 76.07681926 3.34607035 76.28124867 0.6875 76.4375 C-0.05435547 76.4890625 -0.79621094 76.540625 -1.56054688 76.59375 C-7.12624849 76.93687576 -7.12624849 76.93687576 -9.375 75.8125 C-10.65752825 72.37457566 -10.5019237 68.90292067 -10.50439453 65.27148438 C-10.50614685 64.62383621 -10.50789917 63.97618805 -10.50970459 63.30891418 C-10.51409472 61.17466528 -10.51119513 59.0404997 -10.5078125 56.90625 C-10.50848636 55.41939274 -10.50945706 53.93253559 -10.51071167 52.44567871 C-10.51218479 49.33210194 -10.51004645 46.21855389 -10.50537109 43.10498047 C-10.49967404 39.1169379 -10.5029551 35.12896264 -10.50894356 31.14092255 C-10.51255955 28.07142633 -10.5114058 25.00194604 -10.50881577 21.93244934 C-10.50814937 20.46206148 -10.50896486 18.99167217 -10.51129532 17.52128601 C-10.51383887 15.46532368 -10.50995726 13.40946989 -10.50439453 11.35351562 C-10.50359894 10.18421509 -10.50280334 9.01491455 -10.50198364 7.81018066 C-10.39429931 5.26809552 -10.26181985 3.18969486 -9.375 0.8125 C-6.34014203 -0.70492898 -3.30267614 -0.18452452 0 0 Z " fill="#102137" transform="translate(107.375,111.1875)"/>
<path d="M0 0 C6.75 0.75 6.75 0.75 9 3 C9.30078125 5.96875 9.30078125 5.96875 9.3125 9.5 C9.32925781 10.6653125 9.34601563 11.830625 9.36328125 13.03125 C9.24339844 14.0109375 9.12351563 14.990625 9 16 C5.5647952 18.29013653 4.014669 18.17842973 0 18 C0.00222061 18.87252411 0.00444122 19.74504822 0.00672913 20.64401245 C0.0267419 28.85499665 0.04197919 37.06597268 0.05181217 45.27697563 C0.05703728 49.49862582 0.06412822 53.72025591 0.07543945 57.94189453 C0.0862815 62.01376672 0.09227964 66.08561953 0.09487724 70.15750504 C0.09672911 71.71328156 0.10034518 73.26905698 0.10573006 74.82482529 C0.11295795 76.99896307 0.1139902 79.17302016 0.11352539 81.34716797 C0.115746 82.58626923 0.11796661 83.82537048 0.12025452 85.10202026 C0 88 0 88 -1 90 C1.01822917 89.90234375 3.03645833 89.8046875 5.0546875 89.70703125 C5.69664063 89.80371094 6.33859375 89.90039062 7 90 C9.22264871 93.33397306 9.29675463 94.59514891 9.3125 98.5 C9.32925781 99.4590625 9.34601563 100.418125 9.36328125 101.40625 C9 104 9 104 7.95825195 105.65527344 C4.92790648 107.73620385 1.8344976 107.27596474 -1.6953125 107.109375 C-2.44336151 107.08530579 -3.19141052 107.06123657 -3.96212769 107.03643799 C-5.54093085 106.98283124 -7.11949815 106.92184093 -8.69775391 106.85400391 C-11.12241148 106.75011091 -13.54704539 106.66799413 -15.97265625 106.58984375 C-17.50525401 106.53511884 -19.03780872 106.47917143 -20.5703125 106.421875 C-21.66401657 106.38268951 -21.66401657 106.38268951 -22.77981567 106.3427124 C-27.88262204 106.11737796 -27.88262204 106.11737796 -29 105 C-29.07313567 102.46950598 -29.09247527 99.96695163 -29.0625 97.4375 C-29.05798828 96.72658203 -29.05347656 96.01566406 -29.04882812 95.28320312 C-29.03700864 93.52209987 -29.01907263 91.76103964 -29 90 C-26.03 90 -23.06 90 -20 90 C-20.33 66.24 -20.66 42.48 -21 18 C-23.31 17.67 -25.62 17.34 -28 17 C-29 16 -29 16 -29.09765625 12.83984375 C-29.08025391 10.90818359 -29.08025391 10.90818359 -29.0625 8.9375 C-29.05347656 7.64714844 -29.04445312 6.35679688 -29.03515625 5.02734375 C-29.02355469 4.02832031 -29.01195312 3.02929688 -29 2 C-25.3535194 1.1589522 -22.00049093 0.88235032 -18.26171875 0.90234375 C-17.19501953 0.90556641 -16.12832031 0.90878906 -15.02929688 0.91210938 C-13.37510742 0.92467773 -13.37510742 0.92467773 -11.6875 0.9375 C-10.56537109 0.94201172 -9.44324219 0.94652344 -8.28710938 0.95117188 C-5.5246849 0.96292687 -2.76237002 0.97935923 0 1 C0 0.67 0 0.34 0 0 Z " fill="#0F2037" transform="translate(82,81)"/>
<path d="M0 0 C6.42383752 3.88494433 11.63047301 9.49626137 13.9453125 16.7265625 C15.22627035 23.50399403 15.2044519 30.63373322 12.375 37 C6.66809366 37.99250545 1.16091511 38.10477512 -4.625 38 C-5.6796875 36.109375 -5.6796875 36.109375 -6.625 34 C-5.95833333 32.66666667 -5.29166667 31.33333333 -4.625 30 C-4.22479842 26.41300803 -4.30755663 23.09662255 -5.3125 19.625 C-7.21317732 17.27178046 -8.68777249 16.71798895 -11.625 16 C-14.99579485 16.17435146 -17.58612867 16.43029637 -20.5625 18.0625 C-22.37004344 21.35860863 -22.3797157 24.42160659 -21.625 28 C-20.09084239 31.05485771 -17.87592639 33.44489437 -15.625 36 C-14.61990802 37.17346461 -13.61611539 38.34804277 -12.61328125 39.5234375 C-7.15029714 45.89611393 -1.61414962 52.19731226 4.08203125 58.36328125 C5.375 60 5.375 60 5.375 62 C6.035 62 6.695 62 7.375 62 C8.72868596 63.31266518 10.06299596 64.64567325 11.375 66 C11.705 66 12.035 66 12.375 66 C12.34707716 72.1569867 11.3851948 76.17166623 7.07421875 80.69140625 C4.6257258 82.57702726 2.41897585 82.92752438 -0.625 83 C-0.625 82.01 -0.625 81.02 -0.625 80 C-1.285 80 -1.945 80 -2.625 80 C-4.03938406 78.42713316 -5.38104401 76.78860004 -6.6875 75.125 C-9.82548667 71.18097152 -13.04839746 67.4219176 -16.5 63.75 C-19.14628886 60.86727296 -20.61162529 59.03232221 -22.125 55.375 C-24.05941683 51.02256213 -26.85270486 48.81024595 -30.46875 45.796875 C-36.6842197 40.61731692 -40.24384197 35.48674058 -41.4375 27.375 C-42.03297209 20.25060178 -40.11668719 14.04074696 -37 7.6875 C-27.9854193 -2.51320974 -12.52003874 -5.76657117 0 0 Z " fill="#EC7220" transform="translate(291.625,81)"/>
<path d="M0 0 C1.48831242 0.00667405 2.97660807 0.01863442 4.46484375 0.03515625 C5.22345703 0.03966797 5.98207031 0.04417969 6.76367188 0.04882812 C8.64326246 0.06064945 10.52281274 0.07858547 12.40234375 0.09765625 C15.63422072 9.79328717 11.77420509 21.9363726 8.40234375 31.09765625 C8.15355469 31.81953125 7.90476562 32.54140625 7.6484375 33.28515625 C6.04420273 37.53867015 3.73805773 40.07224124 0.40234375 43.09765625 C-0.08621094 43.6390625 -0.57476562 44.18046875 -1.078125 44.73828125 C-3.39173541 47.28384746 -4.86719335 48.88895256 -8.22265625 49.84765625 C-11.74716643 48.73465304 -12.58115975 46.12240099 -14.59765625 43.09765625 C-16.8897446 41.74324041 -19.06230289 40.97527857 -21.59765625 40.09765625 C-20.76234375 39.75734375 -20.76234375 39.75734375 -19.91015625 39.41015625 C-16.95589034 37.73341073 -14.92917774 35.5518894 -12.59765625 33.09765625 C-11.93765625 32.43765625 -11.27765625 31.77765625 -10.59765625 31.09765625 C-9.65405711 28.4961446 -8.81187487 25.93635582 -8.03515625 23.28515625 C-7.69919434 22.15013672 -7.69919434 22.15013672 -7.35644531 20.9921875 C-5.69634256 15.09621717 -4.95075967 9.5729263 -4.73828125 3.44140625 C-4.50858433 -0.3868757 -4.00297761 0.10865846 0 0 Z " fill="#CA1687" transform="translate(312.59765625,124.90234375)"/>
<path d="M0 0 C0.66 0 1.32 0 2 0 C2 0.99 2 1.98 2 3 C2.99 3 3.98 3 5 3 C5.33 5.97 5.66 8.94 6 12 C8.31 12.33 10.62 12.66 13 13 C13.33 15.31 13.66 17.62 14 20 C14.66 20 15.32 20 16 20 C18.61046448 22.84777943 20.42676569 25.13066838 21 29 C22.32 29 23.64 29 25 29 C26.34164079 29.2981424 27.67851173 29.62243192 29 30 C28.34 30.33 27.68 30.66 27 31 C27 32.32 27 33.64 27 35 C27.66 35 28.32 35 29 35 C29 35.66 29 36.32 29 37 C29.66 37 30.32 37 31 37 C31.33 37.66 31.66 38.32 32 39 C33.98 38.505 33.98 38.505 36 38 C36.62995884 35.14095604 37.12359665 32.8857132 37 30 C34.69521716 27.01733986 32.4173598 25.2655926 29.25 23.25 C25.93935506 19.93935506 26.10646696 16.52968517 26 12 C33.01761109 18.92989096 39.97968094 26.17358523 46 34 C46 34.66 46 35.32 46 36 C46.66 36 47.32 36 48 36 C49.35368596 37.31266518 50.68799596 38.64567325 52 40 C52.33 40 52.66 40 53 40 C52.97207716 46.1569867 52.0101948 50.17166623 47.69921875 54.69140625 C45.2507258 56.57702726 43.04397585 56.92752438 40 57 C40 56.01 40 55.02 40 54 C39.34 54 38.68 54 38 54 C36.58561594 52.42713316 35.24395599 50.78860004 33.9375 49.125 C30.79951333 45.18097152 27.57660254 41.4219176 24.125 37.75 C21.47871114 34.86727296 20.01337471 33.03232221 18.5 29.375 C16.56558317 25.02256213 13.77229514 22.81024595 10.15625 19.796875 C5.48469971 15.90391642 1.82970922 11.91136825 0 6 C-0.125 2.6875 -0.125 2.6875 0 0 Z " fill="#EA6E23" transform="translate(251,107)"/>
<path d="M0 0 C0.86625 0.2475 1.7325 0.495 2.625 0.75 C7.34931613 3.23648218 10.04098127 8.08196253 12.375 12.75 C13.7343899 19.8188275 13.9671123 27.32399733 11 34 C5.29309366 34.99250545 -0.21408489 35.10477512 -6 35 C-7.0546875 33.109375 -7.0546875 33.109375 -8 31 C-7.33333333 29.66666667 -6.66666667 28.33333333 -6 27 C-5.59979842 23.41300803 -5.68255663 20.09662255 -6.6875 16.625 C-8.58817732 14.27178046 -10.06277249 13.71798895 -13 13 C-16.59679066 13.32326553 -16.59679066 13.32326553 -20 14 C-20.99 14 -21.98 14 -23 14 C-22.30078125 12.08984375 -22.30078125 12.08984375 -21 10 C-16.55226808 8.11857004 -12.37412534 7.45034986 -7.875 9.25 C-7.25625 9.8275 -6.6375 10.405 -6 11 C-6 11.66 -6 12.32 -6 13 C-5.01 13.33 -4.02 13.66 -3 14 C-1.00813631 19.13691161 -0.8078773 23.52450293 -1 29 C2.87493656 30.07637127 4.52452927 29.94566951 8 28 C8.13526139 25.75165504 8.23210804 23.50097486 8.3125 21.25 C8.39951172 19.37054688 8.39951172 19.37054688 8.48828125 17.453125 C8.33439677 13.82516569 8.33439677 13.82516569 5.48046875 11.546875 C4.66191406 11.03640625 3.84335937 10.5259375 3 10 C3.33 9.01 3.66 8.02 4 7 C2.68 6.34 1.36 5.68 0 5 C0 4.01 0 3.02 0 2 C-2.05270463 3.84188612 -2.05270463 3.84188612 -3 6 C-5 5 -7 4 -9 3 C-8.01 2.67 -7.02 2.34 -6 2 C-6.33 1.01 -6.66 0.02 -7 -1 C-8.423125 -0.690625 -8.423125 -0.690625 -9.875 -0.375 C-10.90625 -0.25125 -11.9375 -0.1275 -13 0 C-13.66 -0.66 -14.32 -1.32 -15 -2 C-18.08347826 -2.16681109 -18.08347826 -2.16681109 -21 -2 C-21 -1.34 -21 -0.68 -21 0 C-21.99 0.33 -22.98 0.66 -24 1 C-24.33 -0.32 -24.66 -1.64 -25 -3 C-16.15295332 -5.64122996 -7.76983518 -4.7213831 0 0 Z " fill="#EC9E22" transform="translate(293,84)"/>
<path d="M0 0 C4.92890005 2.04595851 7.00067202 5.45771295 9.9375 9.75 C10.39125 10.28625 10.845 10.8225 11.3125 11.375 C12.3025 11.375 13.2925 11.375 14.3125 11.375 C14.3125 13.355 14.3125 15.335 14.3125 17.375 C14.9725 17.375 15.6325 17.375 16.3125 17.375 C15.9825 18.365 15.6525 19.355 15.3125 20.375 C12.08381254 20.52084064 8.85597635 20.60924106 5.625 20.6875 C4.71298828 20.72939453 3.80097656 20.77128906 2.86132812 20.81445312 C-3.98263889 20.93888889 -3.98263889 20.93888889 -7.71484375 17.953125 C-8.69130859 16.67695313 -8.69130859 16.67695313 -9.6875 15.375 C-10.30625 14.859375 -10.925 14.34375 -11.5625 13.8125 C-12.6875 12.375 -12.6875 12.375 -12.484375 10.5546875 C-10.46782991 5.03884357 -5.79535628 0.58935827 0 0 Z " fill="#104B77" transform="translate(318.6875,166.625)"/>
<path d="M0 0 C0.99 0.66 1.98 1.32 3 2 C3 2.66 3 3.32 3 4 C1.9790625 4.0309375 1.9790625 4.0309375 0.9375 4.0625 C-3.48562818 5.47413665 -5.91971681 8.64039642 -9 12 C-11.28374911 14.28374911 -13.52998879 15.47452482 -16.375 17 C-17.33148438 17.515625 -18.28796875 18.03125 -19.2734375 18.5625 C-20.17320312 19.036875 -21.07296875 19.51125 -22 20 C-22.71414063 20.4125 -23.42828125 20.825 -24.1640625 21.25 C-26 22 -26 22 -29 21 C-28.01 19.68 -27.02 18.36 -26 17 C-26.33 16.34 -26.66 15.68 -27 15 C-26.72057545 13.32345271 -26.39171753 11.65391846 -26 10 C-27.80984375 9.94392578 -27.80984375 9.94392578 -29.65625 9.88671875 C-31.27086178 9.82100781 -32.88544378 9.75456229 -34.5 9.6875 C-35.29148437 9.66494141 -36.08296875 9.64238281 -36.8984375 9.61914062 C-42.50326071 9.36646417 -46.83826527 8.20794387 -52 6 C-52 5.34 -52 4.68 -52 4 C-50.906875 4.350625 -49.81375 4.70125 -48.6875 5.0625 C-41.75656871 6.80139913 -34.45679776 6.03590491 -28 3 C-27.34 2.34 -26.68 1.68 -26 1 C-22.56563522 0.44307598 -21.25783177 0.83210954 -18.3125 2.75 C-16.19761937 4.80772169 -15.06621522 6.28599761 -14 9 C-11.70309921 9.37768357 -11.70309921 9.37768357 -9 9 C-6.45072503 7.05505514 -6.45072503 7.05505514 -4.1875 4.5 C-3.39730469 3.6646875 -2.60710937 2.829375 -1.79296875 1.96875 C-1.20128906 1.3190625 -0.60960937 0.669375 0 0 Z " fill="#582786" transform="translate(316,164)"/>
<path d="M0 0 C0.33 0.66 0.66 1.32 1 2 C1.66 2.33 2.32 2.66 3 3 C2.01 4.485 2.01 4.485 1 6 C-1.98049002 6 -4.57306704 5.60146481 -7.5 5.0625 C-8.4590625 4.88847656 -9.418125 4.71445313 -10.40625 4.53515625 C-13 4 -13 4 -16 3 C-15.75601219 3.78851349 -15.75601219 3.78851349 -15.50709534 4.59295654 C-14.87081764 7.61319348 -14.88058146 10.42468248 -14.88647461 13.51269531 C-14.88632858 14.15701508 -14.88618256 14.80133484 -14.8860321 15.46517944 C-14.8867265 17.58619603 -14.89449664 19.70712383 -14.90234375 21.828125 C-14.90420961 23.30214388 -14.90563272 24.77616338 -14.90663147 26.25018311 C-14.91044339 30.12338992 -14.92026235 33.99655903 -14.93133545 37.86975098 C-14.94157807 41.82462046 -14.9461352 45.77949606 -14.95117188 49.734375 C-14.96188582 57.48960049 -14.97894631 65.24479496 -15 73 C-16.485 73.495 -16.485 73.495 -18 74 C-18.02312504 64.62964062 -18.04091591 55.25929099 -18.05181217 45.88890934 C-18.05704065 41.53831541 -18.06413765 37.18774093 -18.07543945 32.8371582 C-18.08626959 28.64209742 -18.0922771 24.44705541 -18.09487724 20.25198174 C-18.09673126 18.64793032 -18.10035144 17.04387997 -18.10573006 15.4398365 C-18.11294219 13.20083485 -18.11399087 10.9619117 -18.11352539 8.72290039 C-18.115746 7.44604874 -18.11796661 6.16919708 -18.12025452 4.85365295 C-18 2 -18 2 -17 1 C-14.14122091 0.76298761 -11.30116703 0.57780818 -8.4375 0.4375 C-7.22803711 0.37272461 -7.22803711 0.37272461 -5.99414062 0.30664062 C-3.99631195 0.20024738 -1.9981793 0.09959112 0 0 Z " fill="#1D2636" transform="translate(349,81)"/>
<path d="M0 0 C7.01761109 6.92989096 13.97968094 14.17358523 20 22 C20 22.66 20 23.32 20 24 C20.66 24 21.32 24 22 24 C23.35368596 25.31266518 24.68799596 26.64567325 26 28 C26.33 28 26.66 28 27 28 C26.97207716 34.1569867 26.0101948 38.17166623 21.69921875 42.69140625 C19.2507258 44.57702726 17.04397585 44.92752438 14 45 C14 44.01 14 43.02 14 42 C13.34 42 12.68 42 12 42 C12 41.34 12 40.68 12 40 C13.32 40.33 14.64 40.66 16 41 C16 40.34 16 39.68 16 39 C16.969375 38.525625 17.93875 38.05125 18.9375 37.5625 C21.80477437 36.29806053 21.80477437 36.29806053 23 35 C23.04080783 33.00041636 23.04254356 30.99954746 23 29 C22.21625 28.7525 21.4325 28.505 20.625 28.25 C17.5144918 26.76880562 17.38379532 26.02705226 16 23 C14.3777546 21.29006566 12.70586575 19.62652316 11 18 C10.175 17.154375 9.35 16.30875 8.5 15.4375 C6.10197832 12.93317281 6.10197832 12.93317281 3.25 11.25 C-0.06064494 7.93935506 0.10646696 4.52968517 0 0 Z " fill="#DB6733" transform="translate(277,119)"/>
<path d="M0 0 C1.48831242 0.00667405 2.97660807 0.01863442 4.46484375 0.03515625 C5.22345703 0.03966797 5.98207031 0.04417969 6.76367188 0.04882812 C8.64326246 0.06064945 10.52281274 0.07858547 12.40234375 0.09765625 C15.63422072 9.79328717 11.77420509 21.9363726 8.40234375 31.09765625 C8.15355469 31.81953125 7.90476562 32.54140625 7.6484375 33.28515625 C6.0636701 37.48705382 3.72849578 40.13108822 0.40234375 43.09765625 C-0.09265625 41.61265625 -0.09265625 41.61265625 -0.59765625 40.09765625 C1.73567708 35.43098958 1.73567708 35.43098958 4.40234375 34.09765625 C4.97781047 32.11805072 5.46519792 30.11232831 5.90234375 28.09765625 C6.33948958 26.08298419 6.82687703 24.07726178 7.40234375 22.09765625 C8.06234375 21.76765625 8.72234375 21.43765625 9.40234375 21.09765625 C9.40234375 14.82765625 9.40234375 8.55765625 9.40234375 2.09765625 C3.90049981 2.0049965 3.90049981 2.0049965 -1.59765625 2.09765625 C-3.26108462 3.76108462 -2.95813722 5.88022715 -3.16015625 8.16015625 C-3.24394531 9.07925781 -3.32773437 9.99835938 -3.4140625 10.9453125 C-3.47464844 11.65558594 -3.53523438 12.36585938 -3.59765625 13.09765625 C-3.92765625 13.09765625 -4.25765625 13.09765625 -4.59765625 13.09765625 C-4.62452178 11.11856227 -4.64399 9.13936654 -4.66015625 7.16015625 C-4.67175781 6.05800781 -4.68335938 4.95585937 -4.6953125 3.8203125 C-4.54700562 -0.3144834 -4.27940934 0.11616203 0 0 Z " fill="#B72978" transform="translate(312.59765625,124.90234375)"/>
<path d="M0 0 C0.66 0 1.32 0 2 0 C2 0.99 2 1.98 2 3 C2.99 3 3.98 3 5 3 C5.33 5.97 5.66 8.94 6 12 C8.31 12.33 10.62 12.66 13 13 C13.33 15.31 13.66 17.62 14 20 C14.66 20 15.32 20 16 20 C19.9943492 23.9943492 20.90780355 27.63003413 22 33 C22.66 33 23.32 33 24 33 C24.33 34.32 24.66 35.64 25 37 C21.06839046 34.34350706 19.70436086 32.32455487 18.078125 27.9375 C16.1748351 24.51709496 13.13041259 22.27534382 10.15625 19.796875 C5.48469971 15.90391642 1.82970922 11.91136825 0 6 C-0.125 2.6875 -0.125 2.6875 0 0 Z " fill="#DC4C32" transform="translate(251,107)"/>
<path d="M0 0 C3.50275466 2.4301118 4.71864055 4.60853552 6.2578125 8.56640625 C6.2578125 9.55640625 6.2578125 10.54640625 6.2578125 11.56640625 C6.9178125 11.56640625 7.5778125 11.56640625 8.2578125 11.56640625 C7.9278125 12.55640625 7.5978125 13.54640625 7.2578125 14.56640625 C5.6078125 13.24640625 3.9578125 11.92640625 2.2578125 10.56640625 C2.5878125 9.57640625 2.9178125 8.58640625 3.2578125 7.56640625 C1.9378125 6.90640625 0.6178125 6.24640625 -0.7421875 5.56640625 C-0.7421875 4.57640625 -0.7421875 3.58640625 -0.7421875 2.56640625 C-2.79489213 4.40829237 -2.79489213 4.40829237 -3.7421875 6.56640625 C-5.7421875 5.56640625 -7.7421875 4.56640625 -9.7421875 3.56640625 C-8.7521875 3.23640625 -7.7621875 2.90640625 -6.7421875 2.56640625 C-7.0721875 1.57640625 -7.4021875 0.58640625 -7.7421875 -0.43359375 C-9.1653125 -0.12421875 -9.1653125 -0.12421875 -10.6171875 0.19140625 C-11.6484375 0.31515625 -12.6796875 0.43890625 -13.7421875 0.56640625 C-14.4021875 -0.09359375 -15.0621875 -0.75359375 -15.7421875 -1.43359375 C-18.82566576 -1.60040484 -18.82566576 -1.60040484 -21.7421875 -1.43359375 C-21.7421875 -0.77359375 -21.7421875 -0.11359375 -21.7421875 0.56640625 C-22.7321875 0.89640625 -23.7221875 1.22640625 -24.7421875 1.56640625 C-25.0721875 0.24640625 -25.4021875 -1.07359375 -25.7421875 -2.43359375 C-16.96869666 -5.01278865 -8.08542192 -4.13700159 0 0 Z " fill="#EF991D" transform="translate(293.7421875,83.43359375)"/>
<path d="M0 0 C2 3 2 3 1.8125 5.125 C-0.07081297 11.78903052 -1.89417075 17.3048175 -6 23 C-6.69429379 24.3191582 -7.37530495 25.64649406 -8 27 C-7.34 27 -6.68 27 -6 27 C-5.67 28.98 -5.34 30.96 -5 33 C-2.00847418 32.22520264 -2.00847418 32.22520264 1 31 C1.33 30.01 1.66 29.02 2 28 C2.99 28.33 3.98 28.66 5 29 C0.79457364 34.76744186 0.79457364 34.76744186 -2.5625 35.75 C-6.14944989 34.64632311 -6.95218699 32.07171952 -9 29 C-11.29208835 27.64558416 -13.46464664 26.87762232 -16 26 C-15.1646875 25.6596875 -15.1646875 25.6596875 -14.3125 25.3125 C-11.35823409 23.63575448 -9.33152149 21.45423315 -7 19 C-6.34 18.34 -5.68 17.68 -5 17 C-4.26903744 15.17548792 -4.26903744 15.17548792 -3.7109375 13.0859375 C-3.38222656 11.94511719 -3.38222656 11.94511719 -3.046875 10.78125 C-2.71429688 9.59015625 -2.71429688 9.59015625 -2.375 8.375 C-2.14554687 7.57320312 -1.91609375 6.77140625 -1.6796875 5.9453125 C-1.11394211 3.96520363 -0.55620571 1.98280967 0 0 Z " fill="#BF2C68" transform="translate(307,139)"/>
<path d="M0 0 C2.76223278 2.76223278 2.57856291 5.20706617 3 9 C3.61230469 9.08636719 4.22460938 9.17273438 4.85546875 9.26171875 C7.63302615 10.21792704 7.99848026 11.23702131 9.3125 13.8125 C12.63831597 19.4805827 16.49025891 21.2516214 22.66796875 23.09375 C27.14373263 24.17198576 31.41763239 24.22824225 36 24.125 C36.77472656 24.11597656 37.54945313 24.10695312 38.34765625 24.09765625 C40.23190843 24.07439388 42.11599832 24.0385364 44 24 C44.495 24.99 44.495 24.99 45 26 C35.55040584 29.14986472 24.73929938 27.31754143 16 23 C12.75 21.125 12.75 21.125 10 19 C9.3915625 18.54625 8.783125 18.0925 8.15625 17.625 C1.85026191 12.66291101 0.94391239 7.86593657 0 0 Z " fill="#442965" transform="translate(241,161)"/>
<path d="M0 0 C2.32506163 1.18257445 4.50844072 2.40520415 6.65625 3.8828125 C5.66625 4.2128125 4.67625 4.5428125 3.65625 4.8828125 C2.625 4.2434375 1.59375 3.6040625 0.53125 2.9453125 C-6.02988023 -0.65711938 -14.10268526 0.58658712 -21.34375 0.8828125 C-21.34375 1.8728125 -21.34375 2.8628125 -21.34375 3.8828125 C-21.90964844 4.07617188 -22.47554688 4.26953125 -23.05859375 4.46875 C-23.79207031 4.72914062 -24.52554687 4.98953125 -25.28125 5.2578125 C-26.37759766 5.64066406 -26.37759766 5.64066406 -27.49609375 6.03125 C-29.53057116 6.73552663 -29.53057116 6.73552663 -30.34375 8.8828125 C-31.00375 8.8828125 -31.66375 8.8828125 -32.34375 8.8828125 C-32.48039062 9.58921875 -32.61703125 10.295625 -32.7578125 11.0234375 C-33.34989787 13.91281409 -33.9997636 16.77232898 -34.71875 19.6328125 C-34.95335937 20.59703125 -35.18796875 21.56125 -35.4296875 22.5546875 C-35.73132813 23.32296875 -36.03296875 24.09125 -36.34375 24.8828125 C-37.33375 25.2128125 -38.32375 25.5428125 -39.34375 25.8828125 C-38.30032228 17.55096432 -36.84800406 9.64295429 -30.12109375 4.02734375 C-21.37030768 -1.96303176 -10.17343186 -3.39906719 0 0 Z " fill="#D19A56" transform="translate(289.34375,80.1171875)"/>
<path d="M0 0 C0.33 0.99 0.66 1.98 1 3 C1.99 3.33 2.98 3.66 4 4 C5.39044898 7.87862084 6 10.86462003 6 15 C5.34 15 4.68 15 4 15 C3.67 15.99 3.34 16.98 3 18 C2.98582031 17.32453125 2.97164063 16.6490625 2.95703125 15.953125 C2.71653818 10.23359908 2.71653818 10.23359908 -0.125 5.4375 C-4.81256365 3.09371818 -8.36059595 2.55288981 -13.4375 3.9375 C-14.7059375 4.4634375 -14.7059375 4.4634375 -16 5 C-15.5 2.625 -15.5 2.625 -14 0 C-9.18982785 -2.39405357 -4.81988226 -2.46872018 0 0 Z " fill="#EC9D27" transform="translate(286,94)"/>
<path d="M0 0 C0.67289063 0.01869141 1.34578125 0.03738281 2.0390625 0.05664062 C5.55557816 0.25392546 7.35635244 0.59003948 10.1015625 2.86328125 C10.85566406 3.82814453 10.85566406 3.82814453 11.625 4.8125 C12.676875 4.1525 13.72875 3.4925 14.8125 2.8125 C17.89123937 1.0353415 20.01096328 0.37443494 23.625 0.8125 C21.29166667 3.14583333 18.95833333 5.47916667 16.625 7.8125 C15.635 7.4825 14.645 7.1525 13.625 6.8125 C12.635 7.1425 11.645 7.4725 10.625 7.8125 C9.965 7.8125 9.305 7.8125 8.625 7.8125 C7.635 8.3075 7.635 8.3075 6.625 8.8125 C6.625 7.1625 6.625 5.5125 6.625 3.8125 C5.00036158 3.75854522 3.37521459 3.71972805 1.75 3.6875 C0.84507813 3.66429688 -0.05984375 3.64109375 -0.9921875 3.6171875 C-3.56306994 3.56925164 -3.56306994 3.56925164 -5.375 5.8125 C-5.705 5.1525 -6.035 4.4925 -6.375 3.8125 C-7.365 4.4725 -8.355 5.1325 -9.375 5.8125 C-9.375 4.1625 -9.375 2.5125 -9.375 0.8125 C-6.34014203 -0.70492898 -3.30267614 -0.18452452 0 0 Z " fill="#1B2738" transform="translate(107.375,111.1875)"/>
<path d="M0 0 C0.66 0.99 1.32 1.98 2 3 C1.67 3.66 1.34 4.32 1 5 C2.3929126 4.98428955 2.3929126 4.98428955 3.81396484 4.96826172 C7.2542569 4.93420796 10.69437027 4.90911507 14.13476562 4.89013672 C15.6247032 4.88006957 17.11462097 4.86641482 18.60449219 4.84912109 C20.74419028 4.82490347 22.88362753 4.81352436 25.0234375 4.8046875 C26.31169434 4.79421387 27.59995117 4.78374023 28.92724609 4.77294922 C32 5 32 5 34 7 C22.78 7 11.56 7 0 7 C-1 2 -1 2 0 0 Z " fill="#1C283A" transform="translate(498,136)"/>
<path d="M0 0 C0.99 0.33 1.98 0.66 3 1 C2.83242187 2.24910156 2.66484375 3.49820313 2.4921875 4.78515625 C1.76076037 11.33592028 2.01824548 17.86586516 2.21484375 24.44335938 C2.22902344 25.38888672 2.24320312 26.33441406 2.2578125 27.30859375 C2.2798877 28.16251709 2.30196289 29.01644043 2.32470703 29.89624023 C2.21755371 30.59048096 2.11040039 31.28472168 2 32 C1.01 32.66 0.02 33.32 -1 34 C-1.02481344 29.96151684 -1.0429136 25.92306353 -1.05493164 21.88452148 C-1.05994454 20.51211778 -1.06675658 19.13971938 -1.07543945 17.76733398 C-1.08763857 15.78892349 -1.09272248 13.8104732 -1.09765625 11.83203125 C-1.10289307 10.64327393 -1.10812988 9.4545166 -1.11352539 8.22973633 C-1.01239479 5.35262513 -0.66550193 2.79326587 0 0 Z " fill="#19263E" transform="translate(99,148)"/>
<path d="M0 0 C-0.02792284 6.1569867 -0.9898052 10.17166623 -5.30078125 14.69140625 C-7.7492742 16.57702726 -9.95602415 16.92752438 -13 17 C-13 16.01 -13 15.02 -13 14 C-13.66 14 -14.32 14 -15 14 C-15 13.34 -15 12.68 -15 12 C-13.68 12.33 -12.36 12.66 -11 13 C-11 12.34 -11 11.68 -11 11 C-10.05125 10.649375 -9.1025 10.29875 -8.125 9.9375 C-4.65661832 8.24258366 -4.65661832 8.24258366 -3.75 4.375 C-3.37875 2.704375 -3.37875 2.704375 -3 1 C-1 0 -1 0 0 0 Z " fill="#DA644A" transform="translate(304,147)"/>
<path d="M0 0 C-0.474375 0.433125 -0.94875 0.86625 -1.4375 1.3125 C-3.23686957 3.02309613 -3.23686957 3.02309613 -4 6 C-4.66 6 -5.32 6 -6 6 C-6 6.66 -6 7.32 -6 8 C-6.99 8 -7.98 8 -9 8 C-8.67 6.02 -8.34 4.04 -8 2 C-8.74765625 2.03480469 -9.4953125 2.06960937 -10.265625 2.10546875 C-11.25046875 2.13253906 -12.2353125 2.15960938 -13.25 2.1875 C-14.22453125 2.22230469 -15.1990625 2.25710937 -16.203125 2.29296875 C-19.37468742 1.96075202 -20.67040307 1.11327721 -23 -1 C-20.10462723 -1.2224897 -17.20965101 -1.42843154 -14.3125 -1.625 C-13.49587891 -1.68945312 -12.67925781 -1.75390625 -11.83789062 -1.8203125 C-7.36853066 -2.1098257 -4.07410474 -2.1739622 0 0 Z " fill="#1E2936" transform="translate(242,113)"/>
<path d="M0 0 C3.88523296 1.32451124 6.34925287 2.91728864 9.25 5.8125 C10.27867187 6.81216797 10.27867187 6.81216797 11.328125 7.83203125 C13.19971958 10.25898217 13.64249553 11.98749914 14 15 C12.02 15.66 10.04 16.32 8 17 C8.66 15.35 9.32 13.7 10 12 C9.175 11.21625 8.35 10.4325 7.5 9.625 C5 7 5 7 5 5 C3.68 4.67 2.36 4.34 1 4 C0.67 4.99 0.34 5.98 0 7 C-0.66 7 -1.32 7 -2 7 C-2 6.01 -2 5.02 -2 4 C-1.34 3.67 -0.68 3.34 0 3 C0 2.01 0 1.02 0 0 Z " fill="#73316D" transform="translate(257,124)"/>
<path d="M0 0 C0.66 0.33 1.32 0.66 2 1 C2 5.62 2 10.24 2 15 C6.62 15 11.24 15 16 15 C16.66 13.68 17.32 12.36 18 11 C17.67 12.98 17.34 14.96 17 17 C11.29309366 17.99250545 5.78591511 18.10477512 0 18 C-1.125 16.25 -1.125 16.25 -2 14 C-1.1328125 12.078125 -1.1328125 12.078125 0 10 C0.24029959 7.40845081 0.24029959 7.40845081 0.125 4.75 C0.10695313 3.85796875 0.08890625 2.9659375 0.0703125 2.046875 C0.04710937 1.37140625 0.02390625 0.6959375 0 0 Z " fill="#DBA148" transform="translate(287,101)"/>
<path d="M0 0 C0.66 0.33 1.32 0.66 2 1 C1.01 3.64 0.02 6.28 -1 9 C-1.99 9 -2.98 9 -4 9 C-4.36220266 10.79005941 -4.71452469 12.58212057 -5.0625 14.375 C-5.25972656 15.37273437 -5.45695313 16.37046875 -5.66015625 17.3984375 C-6.24382952 19.97842539 -6.24382952 19.97842539 -5 22 C-5.99 22.99 -6.98 23.98 -8 25 C-8 24.01 -8 23.02 -8 22 C-8.99 21.67 -9.98 21.34 -11 21 C-10.34 20.67 -9.68 20.34 -9 20 C-8.15697123 17.59387088 -8.15697123 17.59387088 -7.5 14.75 C-6.57343402 11.02359333 -5.49798793 7.53835081 -4 4 C-3.34 4 -2.68 4 -2 4 C-1.34 2.68 -0.68 1.36 0 0 Z " fill="#E2642D" transform="translate(261,85)"/>
<path d="M0 0 C1.98 0.99 1.98 0.99 4 2 C4 2.66 4 3.32 4 4 C5.65 4.33 7.3 4.66 9 5 C9 5.66 9 6.32 9 7 C9.66 7 10.32 7 11 7 C14.9943492 10.9943492 15.90780355 14.63003413 17 20 C17.66 20 18.32 20 19 20 C19.33 21.32 19.66 22.64 20 24 C16.06839046 21.34350706 14.70436086 19.32455487 13.078125 14.9375 C11.1748351 11.51709496 8.13041259 9.27534382 5.15625 6.796875 C3.31824349 5.26520291 1.57655032 3.79888434 0 2 C0 1.34 0 0.68 0 0 Z " fill="#C4544A" transform="translate(256,120)"/>
<path d="M0 0 C-4.24937195 2.89729906 -8.1215403 5.37384677 -13 7 C-13.33 7.99 -13.66 8.98 -14 10 C-14.66 10 -15.32 10 -16 10 C-16.33 11.32 -16.66 12.64 -17 14 C-17.99 14 -18.98 14 -20 14 C-18.4082354 7.98666706 -13.96813838 4.8156744 -8.8671875 1.6953125 C-3.51124292 -1.17041431 -3.51124292 -1.17041431 0 0 Z " fill="#192635" transform="translate(506,113)"/>
<path d="M0 0 C0.99 0.66 1.98 1.32 3 2 C3 2.66 3 3.32 3 4 C1.9790625 4.0309375 1.9790625 4.0309375 0.9375 4.0625 C-3.48562818 5.47413665 -5.91971681 8.64039642 -9 12 C-11.06212166 14.06212166 -12.97035716 15.2543095 -15.5 16.6875 C-16.2940625 17.14511719 -17.088125 17.60273438 -17.90625 18.07421875 C-18.5971875 18.37972656 -19.288125 18.68523437 -20 19 C-20.66 18.67 -21.32 18.34 -22 18 C-20.68 17.34 -19.36 16.68 -18 16 C-18 14.68 -18 13.36 -18 12 C-16.88625 11.87625 -15.7725 11.7525 -14.625 11.625 C-8.20678118 10.10671168 -4.2504853 4.72082588 0 0 Z " fill="#343D73" transform="translate(316,164)"/>
<path d="M0 0 C5.68193002 3.78795335 7.90101751 8.70305252 10 15 C10.0685495 16.89470816 10.08480372 18.7916834 10.0625 20.6875 C10.05347656 21.68136719 10.04445313 22.67523438 10.03515625 23.69921875 C10.02355469 24.45847656 10.01195312 25.21773437 10 26 C9.67 26 9.34 26 9 26 C8.67 23.36 8.34 20.72 8 18 C7.34 18 6.68 18 6 18 C6 15.36 6 12.72 6 10 C5.34 10 4.68 10 4 10 C1.125 3.375 1.125 3.375 0 0 Z " fill="#E2A441" transform="translate(296,85)"/>
<path d="M0 0 C0 0.99 0 1.98 0 3 C-3.78111106 6.78111106 -8.19714304 8.19367277 -13.4375 8.375 C-18.09675108 8.23089945 -21.75060553 6.85428123 -26 5 C-26 4.34 -26 3.68 -26 3 C-24.906875 3.350625 -23.81375 3.70125 -22.6875 4.0625 C-15.75656871 5.80139913 -8.45679776 5.03590491 -2 2 C-1.34 1.34 -0.68 0.68 0 0 Z " fill="#44285E" transform="translate(290,165)"/>
<path d="M0 0 C2.5 1.3125 2.5 1.3125 5 3 C5 3.99 5 4.98 5 6 C4.04867187 6.67482422 4.04867187 6.67482422 3.078125 7.36328125 C0.39695508 9.47495455 0.26721806 10.8686841 -0.25 14.1875 C-0.39953125 15.08855469 -0.5490625 15.98960937 -0.703125 16.91796875 C-0.80109375 17.60503906 -0.8990625 18.29210937 -1 19 C-1.33 19 -1.66 19 -2 19 C-2.05394705 16.39555652 -2.09364469 13.79223002 -2.125 11.1875 C-2.14175781 10.44951172 -2.15851563 9.71152344 -2.17578125 8.95117188 C-2.21074628 5.08753574 -2.19397555 3.29096332 0 0 Z " fill="#0F1A2C" transform="translate(146,165)"/>
<path d="M0 0 C1.66666667 1.66666667 3.33333333 3.33333333 5 5 C5.763125 5.721875 6.52625 6.44375 7.3125 7.1875 C9 9 9 9 9 11 C9.66 11 10.32 11 11 11 C12.625 13.5 12.625 13.5 14 16 C10.625 15.25 10.625 15.25 7 14 C5.8125 12.125 5.8125 12.125 5 10 C4.319375 9.38125 3.63875 8.7625 2.9375 8.125 C0.5209638 5.47460546 0.31939776 3.51337538 0 0 Z " fill="#CF764E" transform="translate(288,132)"/>
<path d="M0 0 C0.66 0.33 1.32 0.66 2 1 C1.01 2.485 1.01 2.485 0 4 C-0.66 4 -1.32 4 -2 4 C-2.13664062 4.70640625 -2.27328125 5.4128125 -2.4140625 6.140625 C-3.00614787 9.03000159 -3.6560136 11.88951648 -4.375 14.75 C-4.60960937 15.71421875 -4.84421875 16.6784375 -5.0859375 17.671875 C-5.38757813 18.44015625 -5.68921875 19.2084375 -6 20 C-6.99 20.33 -7.98 20.66 -9 21 C-8.06350658 13.52203017 -6.48437271 7.18038546 -2 1 C-1.34 0.67 -0.68 0.34 0 0 Z " fill="#CA684D" transform="translate(259,85)"/>
<path d="M0 0 C1.48831242 0.00667405 2.97660807 0.01863442 4.46484375 0.03515625 C5.22345703 0.03966797 5.98207031 0.04417969 6.76367188 0.04882812 C8.64326246 0.06064945 10.52281274 0.07858547 12.40234375 0.09765625 C13.63337367 3.79074601 13.27409527 6.97816337 12.96484375 10.78515625 C12.91263672 11.48705078 12.86042969 12.18894531 12.80664062 12.91210938 C12.6772651 14.64103679 12.54051844 16.3694098 12.40234375 18.09765625 C12.07234375 18.09765625 11.74234375 18.09765625 11.40234375 18.09765625 C11.40234375 12.81765625 11.40234375 7.53765625 11.40234375 2.09765625 C9.27796875 2.07703125 7.15359375 2.05640625 4.96484375 2.03515625 C3.17240234 2.01775391 3.17240234 2.01775391 1.34375 2 C-1.48638966 1.75863833 -1.48638966 1.75863833 -2.59765625 3.09765625 C-2.83052633 4.77949573 -3.01029791 6.46889785 -3.16015625 8.16015625 C-3.24394531 9.07925781 -3.32773437 9.99835938 -3.4140625 10.9453125 C-3.47464844 11.65558594 -3.53523438 12.36585938 -3.59765625 13.09765625 C-3.92765625 13.09765625 -4.25765625 13.09765625 -4.59765625 13.09765625 C-4.62452178 11.11856227 -4.64399 9.13936654 -4.66015625 7.16015625 C-4.67175781 6.05800781 -4.68335938 4.95585937 -4.6953125 3.8203125 C-4.54700562 -0.3144834 -4.27940934 0.11616203 0 0 Z " fill="#973C74" transform="translate(312.59765625,124.90234375)"/>
<path d="M0 0 C0.66 0.33 1.32 0.66 2 1 C1.87625 2.155 1.7525 3.31 1.625 4.5 C1.57366351 9.30851816 3.63819171 11.79252832 6.6875 15.3359375 C8 17 8 17 8 19 C7.01 19 6.02 19 5 19 C5 18.01 5 17.02 5 16 C4.01 16 3.02 16 2 16 C2 15.34 2 14.68 2 14 C1.34 14 0.68 14 0 14 C-1.21693876 11.56612247 -1.31959896 9.58161154 -1.5625 6.875 C-1.64628906 5.96492188 -1.73007812 5.05484375 -1.81640625 4.1171875 C-1.87699219 3.41851562 -1.93757813 2.71984375 -2 2 C-1.34 2 -0.68 2 0 2 C0 1.34 0 0.68 0 0 Z " fill="#C66649" transform="translate(268,100)"/>
<path d="M0 0 C7.14677104 -0.32485323 7.14677104 -0.32485323 10 2 C10.75 5.125 10.75 5.125 11 8 C13.99152582 7.22520264 13.99152582 7.22520264 17 6 C17.33 5.01 17.66 4.02 18 3 C18.99 3.33 19.98 3.66 21 4 C16.79457364 9.76744186 16.79457364 9.76744186 13.4375 10.75 C9.85055011 9.64632311 9.04781301 7.07171952 7 4 C4.70791165 2.64558416 2.53535336 1.87762232 0 1 C0 0.67 0 0.34 0 0 Z " fill="#993081" transform="translate(291,164)"/>
<path d="M0 0 C0.66 0 1.32 0 2 0 C2.66 0.66 3.32 1.32 4 2 C4.969375 2.61875 5.93875 3.2375 6.9375 3.875 C9.67772139 5.77637811 11.22297583 7.23574018 13 10 C12.34 10 11.68 10 11 10 C11.66 11.65 12.32 13.3 13 15 C7.73158968 11.01656781 3.78162476 6.41510765 0 1 C0 0.67 0 0.34 0 0 Z " fill="#CE6B40" transform="translate(276,144)"/>
<path d="M0 0 C-0.33 0.99 -0.66 1.98 -1 3 C-1.99 3 -2.98 3 -4 3 C-4.96070434 5.88211302 -5.10581883 7.69850044 -5.0625 10.6875 C-5.05347656 11.49574219 -5.04445313 12.30398437 -5.03515625 13.13671875 C-5.02355469 13.75160156 -5.01195312 14.36648437 -5 15 C-5.66 15 -6.32 15 -7 15 C-7.36149849 12.33394867 -7.69206202 9.67210695 -8 7 C-8.12375 6.071875 -8.2475 5.14375 -8.375 4.1875 C-8 2 -8 2 -5.6875 0.125 C-3 -1 -3 -1 0 0 Z " fill="#DD572D" transform="translate(272,97)"/>
<path d="M0 0 C4.69994773 1.52430737 4.69994773 1.52430737 6.28125 4.03125 C7.90036212 6.2852206 7.90036212 6.2852206 10.91796875 6.609375 C11.99691406 6.65578125 13.07585937 6.7021875 14.1875 6.75 C15.27417969 6.80671875 16.36085938 6.8634375 17.48046875 6.921875 C18.31191406 6.94765625 19.14335937 6.9734375 20 7 C20 7.66 20 8.32 20 9 C9.0679259 9.78459862 9.0679259 9.78459862 4.9375 6.75 C4.298125 5.8425 3.65875 4.935 3 4 C2.401875 3.236875 1.80375 2.47375 1.1875 1.6875 C0.5996875 0.8521875 0.5996875 0.8521875 0 0 Z " fill="#314C68" transform="translate(306,178)"/>
<path d="M0 0 C0.66 0.33 1.32 0.66 2 1 C1.319375 2.85625 1.319375 2.85625 0.625 4.75 C-1.2725842 10.38879287 -2.15507005 16.12525178 -3 22 C-3.66 22 -4.32 22 -5 22 C-4.74809356 13.85082664 -3.99450062 7.19010111 0 0 Z " fill="#1E2938" transform="translate(484,129)"/>
<path d="M0 0 C0.66 0.33 1.32 0.66 2 1 C1.01 2.32 0.02 3.64 -1 5 C-0.67 5.66 -0.34 6.32 0 7 C-0.99 7 -1.98 7 -3 7 C-3 7.66 -3 8.32 -3 9 C-3.66 9 -4.32 9 -5 9 C-5.33 9.99 -5.66 10.98 -6 12 C-7.65 12.33 -9.3 12.66 -11 13 C-7.61227103 8.30840284 -4.21814817 3.9700218 0 0 Z " fill="#182735" transform="translate(207,127)"/>
<path d="M0 0 C1.18851563 0.10183594 2.37703125 0.20367187 3.6015625 0.30859375 C4.51679687 0.39238281 5.43203125 0.47617188 6.375 0.5625 C6.045 1.5525 5.715 2.5425 5.375 3.5625 C4.09625 3.52125 2.8175 3.48 1.5 3.4375 C-0.64371492 3.32037127 -0.64371492 3.32037127 -2.625 3.5625 C-3.285 4.2225 -3.945 4.8825 -4.625 5.5625 C-4.955 4.9025 -5.285 4.2425 -5.625 3.5625 C-6.615 4.2225 -7.605 4.8825 -8.625 5.5625 C-8.625 3.9125 -8.625 2.2625 -8.625 0.5625 C-5.68113377 -0.90943312 -3.25109964 -0.28686173 0 0 Z " fill="#1F2D40" transform="translate(106.625,111.4375)"/>
<path d="M0 0 C9.01531729 -0.63019694 9.01531729 -0.63019694 13.125 2 C13.74375 2.66 14.3625 3.32 15 4 C14.67 4.99 14.34 5.98 14 7 C13.649375 6.525625 13.29875 6.05125 12.9375 5.5625 C10.05703665 3.23954569 7.65145038 3.18566697 4 3 C0.66500695 3.83169965 0.66500695 3.83169965 -2 5 C-1.34 3.35 -0.68 1.7 0 0 Z " fill="#DA893B" transform="translate(272,94)"/>
<path d="M0 0 C3.11257569 0 5.10765685 0.17361624 8 1 C7.01 1.495 7.01 1.495 6 2 C6 3.32 6 4.64 6 6 C6.66 6 7.32 6 8 6 C8 7.65 8 9.3 8 11 C7.34 10.67 6.68 10.34 6 10 C6 9.34 6 8.68 6 8 C5.34 8 4.68 8 4 8 C3.67 6.68 3.34 5.36 3 4 C2.34 4 1.68 4 1 4 C0.67 2.68 0.34 1.36 0 0 Z " fill="#E15B2E" transform="translate(272,136)"/>
<path d="M0 0 C5.28 0 10.56 0 16 0 C15.34 1.32 14.68 2.64 14 4 C10.95438718 4 8.30174598 3.5626816 5.3125 3 C4.31863281 2.814375 3.32476562 2.62875 2.30078125 2.4375 C1.54152344 2.293125 0.78226562 2.14875 0 2 C0 1.34 0 0.68 0 0 Z " fill="#1B2943" transform="translate(336,83)"/>
<path d="M0 0 C0.99 0.33 1.98 0.66 3 1 C3.87890625 2.92578125 3.87890625 2.92578125 4.5625 5.3125 C5.46539583 8.39866936 6.48515539 11.15885366 8 14 C5.51277859 13.65693498 4.20431829 13.18161626 2.3125 11.5 C0.380793 7.8205581 0.2542679 4.10335782 0 0 Z " fill="#462665" transform="translate(256,154)"/>
<path d="M0 0 C0.66 0 1.32 0 2 0 C2 0.99 2 1.98 2 3 C3.32 2.67 4.64 2.34 6 2 C6.33 4.64 6.66 7.28 7 10 C5.68 10.33 4.36 10.66 3 11 C3 10.01 3 9.02 3 8 C2.34 8 1.68 8 1 8 C0.67 5.36 0.34 2.72 0 0 Z " fill="#DF5B2C" transform="translate(271,116)"/>
<path d="M0 0 C3.875 0.875 3.875 0.875 5 2 C5.4664311 7.3639576 5.4664311 7.3639576 3.625 9.875 C2 11 2 11 0 11 C0.08378906 10.37351563 0.16757812 9.74703125 0.25390625 9.1015625 C0.35574219 8.28429687 0.45757812 7.46703125 0.5625 6.625 C0.66691406 5.81289062 0.77132813 5.00078125 0.87890625 4.1640625 C1.18237328 1.95100814 1.18237328 1.95100814 0 0 Z " fill="#E67B24" transform="translate(296,146)"/>
<path d="M0 0 C5.94 0 11.88 0 18 0 C18 0.66 18 1.32 18 2 C15.75215576 2.24942657 13.50152494 2.47383488 11.25 2.6875 C9.99703125 2.81511719 8.7440625 2.94273438 7.453125 3.07421875 C4 3 4 3 0 0 Z " fill="#232F41" transform="translate(219,112)"/>
<path d="M0 0 C2.64 0 5.28 0 8 0 C8 0.66 8 1.32 8 2 C6.02 2.66 4.04 3.32 2 4 C1.67 7.63 1.34 11.26 1 15 C0.67 15 0.34 15 0 15 C0 10.05 0 5.1 0 0 Z " fill="#17212C" transform="translate(53,171)"/>
<path d="M0 0 C2 3 2 3 1.8125 5.125 C0.68024066 9.13145612 -0.6374433 13.06658159 -2 17 C-3.90360495 11.28918516 -2.05474035 5.4793076 0 0 Z " fill="#B22F78" transform="translate(307,139)"/>
<path d="M0 0 C0.598125 0.165 1.19625 0.33 1.8125 0.5 C4.11344336 1.1114124 4.11344336 1.1114124 7 1 C7 2.98 7 4.96 7 7 C7.66 7 8.32 7 9 7 C8.67 7.99 8.34 8.98 8 10 C7.01 10 6.02 10 5 10 C4.731875 9.0925 4.46375 8.185 4.1875 7.25 C3.10423706 4.28528037 2.01640543 2.3830246 0 0 Z " fill="#11374D" transform="translate(326,177)"/>
<path d="M0 0 C4.21814817 3.9700218 7.61227103 8.30840284 11 13 C8.5625 12.1875 8.5625 12.1875 6 11 C5.67 10.01 5.34 9.02 5 8 C2.98491642 7.26676204 2.98491642 7.26676204 1 7 C0.67 4.69 0.34 2.38 0 0 Z " fill="#C6714F" transform="translate(277,119)"/>
<path d="M0 0 C0.99 0.495 0.99 0.495 2 1 C1.01 1.495 1.01 1.495 0 2 C0 1.34 0 0.68 0 0 Z M-4 1 C-3.67 1.66 -3.34 2.32 -3 3 C-2.34 3.33 -1.68 3.66 -1 4 C-2.1875 5.5 -2.1875 5.5 -4 7 C-6.6875 7.1875 -6.6875 7.1875 -9 7 C-7.63016497 3.83884224 -7.0109362 3.0072908 -4 1 Z " fill="#56297B" transform="translate(258,128)"/>
<path d="M0 0 C3.81283223 0.52956003 6.16522647 1.36072809 9 4 C9.33 4.680625 9.66 5.36125 10 6.0625 C11.25346936 8.49109689 12.51150574 9.0046023 15 10 C13.1875 10.6875 13.1875 10.6875 11 11 C8.51384442 9.15840327 7.99843096 7.99529289 7 5 C5.01679982 3.96708324 3.01652194 2.9662501 1 2 C0.67 1.34 0.34 0.68 0 0 Z " fill="#712A82" transform="translate(291,165)"/>
<path d="M0 0 C4.95 0 9.9 0 15 0 C15 0.66 15 1.32 15 2 C11.24104971 2.96658722 8.75701369 2.82471032 5 2 C3.0003559 1.96227087 0.99945939 1.95350094 -1 2 C-0.67 1.34 -0.34 0.68 0 0 Z " fill="#1E2835" transform="translate(509,111)"/>
<path d="M0 0 C0.66 0 1.32 0 2 0 C2.13277344 0.60328125 2.26554688 1.2065625 2.40234375 1.828125 C2.57894531 2.62734375 2.75554687 3.4265625 2.9375 4.25 C3.11152344 5.03890625 3.28554687 5.8278125 3.46484375 6.640625 C3.947556 8.76878703 4.46163178 10.88532842 5 13 C1.59243919 10.72829279 1.1304589 9.82616857 0 6 C-0.125 2.6875 -0.125 2.6875 0 0 Z " fill="#BD4F49" transform="translate(251,107)"/>
<path d="M0 0 C1.75570313 0.01353516 1.75570313 0.01353516 3.546875 0.02734375 C4.43890625 0.03894531 5.3309375 0.05054687 6.25 0.0625 C6.25 0.3925 6.25 0.7225 6.25 1.0625 C-0.185 1.5575 -0.185 1.5575 -6.75 2.0625 C-6.75 2.7225 -6.75 3.3825 -6.75 4.0625 C-7.74 4.3925 -8.73 4.7225 -9.75 5.0625 C-10.08 3.7425 -10.41 2.4225 -10.75 1.0625 C-7.14006828 -0.07230527 -3.7657673 -0.03765767 0 0 Z " fill="#E68B2E" transform="translate(278.75,79.9375)"/>
<path d="M0 0 C2 2 2 2 2 6 C0.21722256 8.01623639 -1.83126157 9.37344618 -4 11 C-4 9.68 -4 8.36 -4 7 C-3.34 6.67 -2.68 6.34 -2 6 C-1.27306096 4.02111039 -0.60183749 2.02045442 0 0 Z " fill="#0D1526" transform="translate(545,170)"/>
<path d="M0 0 C1.98 0 3.96 0 6 0 C6 0.66 6 1.32 6 2 C4.3203125 3.32421875 4.3203125 3.32421875 2.125 4.6875 C1.40570313 5.14511719 0.68640625 5.60273438 -0.0546875 6.07421875 C-1.01761719 6.53248047 -1.01761719 6.53248047 -2 7 C-2.66 6.67 -3.32 6.34 -4 6 C-2.68 5.34 -1.36 4.68 0 4 C0 2.68 0 1.36 0 0 Z " fill="#432A6D" transform="translate(298,176)"/>
<path d="M0 0 C2 2 2 2 2.125 5.625 C2.08375 6.73875 2.0425 7.8525 2 9 C1.01 9 0.02 9 -1 9 C-1.625 6.1875 -1.625 6.1875 -2 3 C-1.34 2.01 -0.68 1.02 0 0 Z " fill="#0C182C" transform="translate(548,141)"/>
<path d="M0 0 C0.66 0.33 1.32 0.66 2 1 C2.05449838 2.72880982 2.09301688 4.45812712 2.125 6.1875 C2.14820313 7.15042969 2.17140625 8.11335938 2.1953125 9.10546875 C1.9913544 12.12812778 1.26874632 14.26769985 0 17 C-0.66 16.01 -1.32 15.02 -2 14 C-1.67257812 13.44828125 -1.34515625 12.8965625 -1.0078125 12.328125 C0.16787715 9.61219077 0.20248638 7.69448241 0.125 4.75 C0.10695313 3.85796875 0.08890625 2.9659375 0.0703125 2.046875 C0.04710937 1.37140625 0.02390625 0.6959375 0 0 Z " fill="#D5A256" transform="translate(287,101)"/>
<path d="M0 0 C2.74708629 4.12062943 3.11949692 6.84276139 3.0625 11.6875 C3.05347656 12.68136719 3.04445313 13.67523438 3.03515625 14.69921875 C3.02355469 15.45847656 3.01195312 16.21773437 3 17 C2.67 17 2.34 17 2 17 C1.77213542 14.94921875 1.54427083 12.8984375 1.31640625 10.84765625 C1.18113386 8.98859771 1.18113386 8.98859771 0 8 C-0.14115161 5.32941149 -0.04247107 2.67567762 0 0 Z " fill="#DCA452" transform="translate(303,94)"/>
<path d="M0 0 C-0.125 2.25 -0.125 2.25 -1 5 C-4.0625 7.3125 -4.0625 7.3125 -7 9 C-6.37315423 6.07471973 -5.51695295 3.58774327 -4 1 C-2 0 -2 0 0 0 Z " fill="#832D78" transform="translate(319,159)"/>
<path d="M0 0 C1.32 0.33 2.64 0.66 4 1 C3.67 1.66 3.34 2.32 3 3 C2.34 3 1.68 3 1 3 C0.01 5.97 -0.98 8.94 -2 12 C-2.33 12 -2.66 12 -3 12 C-3.34833144 7.12335991 -2.41685712 4.22949995 0 0 Z " fill="#482D65" transform="translate(261,141)"/>
<path d="M0 0 C0.33 0 0.66 0 1 0 C1.08078641 2.12438339 1.13909141 4.2496323 1.1875 6.375 C1.22230469 7.55835937 1.25710937 8.74171875 1.29296875 9.9609375 C1.19628906 10.96382812 1.09960938 11.96671875 1 13 C0.01 13.66 -0.98 14.32 -2 15 C-2.66 14.01 -3.32 13.02 -4 12 C-3.01 12 -2.02 12 -1 12 C-0.67 8.04 -0.34 4.08 0 0 Z " fill="#0D1121" transform="translate(90,84)"/>
<path d="M0 0 C1.4540625 0.0309375 1.4540625 0.0309375 2.9375 0.0625 C1.6175 0.3925 0.2975 0.7225 -1.0625 1.0625 C-1.0625 2.0525 -1.0625 3.0425 -1.0625 4.0625 C-3.7025 4.3925 -6.3425 4.7225 -9.0625 5.0625 C-8.258125 4.423125 -7.45375 3.78375 -6.625 3.125 C-2.81376904 0.05742386 -2.81376904 0.05742386 0 0 Z " fill="#D58444" transform="translate(269.0625,79.9375)"/>
<path d="M0 0 C3.78383679 0.92493788 5.56693694 1.39371171 7.875 4.625 C8.431875 5.800625 8.431875 5.800625 9 7 C5.625 6.3125 5.625 6.3125 2 5 C0.5625 2.375 0.5625 2.375 0 0 Z " fill="#D67945" transform="translate(293,141)"/>
<path d="M0 0 C0.99 0.33 1.98 0.66 3 1 C2.814375 1.61875 2.62875 2.2375 2.4375 2.875 C1.76313824 5.04160178 1.76313824 5.04160178 3 7 C2.01 7.99 1.02 8.98 0 10 C0 9.01 0 8.02 0 7 C-0.99 6.67 -1.98 6.34 -3 6 C-2.34 5.67 -1.68 5.34 -1 5 C-0.34444881 2.47266765 -0.34444881 2.47266765 0 0 Z " fill="#DA4A30" transform="translate(253,100)"/>
<path d="M0 0 C1.32 0.66 2.64 1.32 4 2 C-0.43076923 5.07692308 -0.43076923 5.07692308 -3.3125 4.6875 C-3.869375 4.460625 -4.42625 4.23375 -5 4 C-4.67 3.34 -4.34 2.68 -4 2 C-2.68 2 -1.36 2 0 2 C0 1.34 0 0.68 0 0 Z " fill="#0A142B" transform="translate(397,179)"/>
<path d="M0 0 C1.66666667 0 3.33333333 0 5 0 C4.34 1.32 3.68 2.64 3 4 C1.35 4 -0.3 4 -2 4 C-1.34 2.68 -0.68 1.36 0 0 Z " fill="#B9247F" transform="translate(304,168)"/>
<path d="M0 0 C1.32 0.66 2.64 1.32 4 2 C3.34 3.32 2.68 4.64 2 6 C0 5 -2 4 -4 3 C-2.68 2.01 -1.36 1.02 0 0 Z " fill="#F4970F" transform="translate(288,84)"/>
<path d="M0 0 C3.0210714 2.0140476 4.60667426 3.63279613 6 7 C5.01 7.33 4.02 7.66 3 8 C2.67 6.68 2.34 5.36 2 4 C1.34 4 0.68 4 0 4 C0 2.68 0 1.36 0 0 Z " fill="#184661" transform="translate(322,170)"/>
<path d="M0 0 C2.16750011 3.25125017 2.68533358 5.14533632 3 9 C2.0625 11.375 2.0625 11.375 1 13 C0.1276588 10.00519083 -0.10829766 7.36424089 -0.0625 4.25 C-0.05347656 3.45078125 -0.04445313 2.6515625 -0.03515625 1.828125 C-0.02355469 1.22484375 -0.01195312 0.6215625 0 0 Z " fill="#191E2D" transform="translate(421,130)"/>
<path d="M0 0 C2.375 0.25 2.375 0.25 5 1 C6.3125 3.0625 6.3125 3.0625 7 5 C5.35 5 3.7 5 2 5 C2 4.34 2 3.68 2 3 C1.34 3 0.68 3 0 3 C0 2.01 0 1.02 0 0 Z " fill="#161E2D" transform="translate(464,113)"/>
<path d="M0 0 C-0.33 0.99 -0.66 1.98 -1 3 C-3.31 3.33 -5.62 3.66 -8 4 C-8 3.34 -8 2.68 -8 2 C-3.61016949 -1.20338983 -3.61016949 -1.20338983 0 0 Z " fill="#E0652B" transform="translate(272,97)"/>
<path d="M0 0 C4.875 1.75 4.875 1.75 6 4 C4.68 4 3.36 4 2 4 C1.01 5.485 1.01 5.485 0 7 C-0.66 7 -1.32 7 -2 7 C-2 6.01 -2 5.02 -2 4 C-1.34 3.67 -0.68 3.34 0 3 C0 2.01 0 1.02 0 0 Z " fill="#683B6D" transform="translate(257,124)"/>
<path d="M0 0 C4.95 0.99 4.95 0.99 10 2 C9.67 2.99 9.34 3.98 9 5 C5.12867972 4.42647107 2.91827204 2.51295648 0 0 Z " fill="#1C2636" transform="translate(460,128)"/>
<path d="M0 0 C0 0.99 0 1.98 0 3 C-0.495 2.690625 -0.99 2.38125 -1.5 2.0625 C-4.97986781 0.58355618 -8.24028509 0.37597149 -12 0 C-12 -0.33 -12 -0.66 -12 -1 C-7.31034294 -2.11658501 -4.46236469 -1.80619523 0 0 Z " fill="#E98E1E" transform="translate(286,94)"/>
<path d="M0 0 C7.50769231 -0.36923077 7.50769231 -0.36923077 10 1.5 C10.495 2.2425 10.495 2.2425 11 3 C10.67 3.99 10.34 4.98 10 6 C9.649375 5.54625 9.29875 5.0925 8.9375 4.625 C6.22903794 2.35338666 3.39204672 1.83201146 0 1 C0 0.67 0 0.34 0 0 Z " fill="#D5964A" transform="translate(276,95)"/>
<path d="M0 0 C0.33 0 0.66 0 1 0 C1.08131463 1.43655854 1.13933559 2.8744483 1.1875 4.3125 C1.22230469 5.11300781 1.25710937 5.91351563 1.29296875 6.73828125 C0.93801608 9.47851584 0.10633718 10.29171079 -2 12 C-2.66 11.01 -3.32 10.02 -4 9 C-3.01 9 -2.02 9 -1 9 C-0.67 6.03 -0.34 3.06 0 0 Z " fill="#11353D" transform="translate(90,176)"/>
<path d="M0 0 C0.33 0 0.66 0 1 0 C1.03738281 0.62648437 1.07476562 1.25296875 1.11328125 1.8984375 C1.17902344 2.71570313 1.24476562 3.53296875 1.3125 4.375 C1.37050781 5.18710938 1.42851563 5.99921875 1.48828125 6.8359375 C1.82990528 9.37921338 1.82990528 9.37921338 5 11 C3.35 11.33 1.7 11.66 0 12 C0 8.04 0 4.08 0 0 Z " fill="#182939" transform="translate(54,175)"/>
<path d="M0 0 C3.40320742 1.01176437 4.75725331 1.64843582 6.8125 4.625 C7.204375 5.40875 7.59625 6.1925 8 7 C6.25 6.875 6.25 6.875 4 6 C1.75 2.9375 1.75 2.9375 0 0 Z " fill="#204969" transform="translate(306,178)"/>
<path d="M0 0 C1.75 0.125 1.75 0.125 4 1 C6.25 4.0625 6.25 4.0625 8 7 C7.67 7.66 7.34 8.32 7 9 C5.83037314 7.69013727 4.66437056 6.3770374 3.5 5.0625 C2.8503125 4.33160156 2.200625 3.60070312 1.53125 2.84765625 C0 1 0 1 0 0 Z " fill="#C77357" transform="translate(281,150)"/>
<path d="M0 0 C0 3.73120489 -1.18031476 5.78055689 -3 9 C-3.99 9.495 -3.99 9.495 -5 10 C-4.4454626 6.67277559 -3.75986957 3.8986087 -2 1 C-1.34 0.67 -0.68 0.34 0 0 Z " fill="#472C6B" transform="translate(247,136)"/>
<path d="M0 0 C-0.75 2.4375 -0.75 2.4375 -2 5 C-4.125 5.8125 -4.125 5.8125 -6 6 C-6 5.01 -6 4.02 -6 3 C-2.66666667 0 -2.66666667 0 0 0 Z " fill="#1D2739" transform="translate(224,132)"/>
<path d="M0 0 C0.66 0.66 1.32 1.32 2 2 C1.34 2.66 0.68 3.32 0 4 C0.33 4.66 0.66 5.32 1 6 C-0.32 6.33 -1.64 6.66 -3 7 C-3 3 -3 3 -1.5 1.25 C-1.005 0.8375 -0.51 0.425 0 0 Z " fill="#1A2739" transform="translate(213,120)"/>
<path d="M0 0 C4.29 0 8.58 0 13 0 C12.01 0.66 11.02 1.32 10 2 C9.01 1.67 8.02 1.34 7 1 C7 1.66 7 2.32 7 3 C4.69 2.34 2.38 1.68 0 1 C0 0.67 0 0.34 0 0 Z " fill="#1D2A40" transform="translate(72,83)"/>
<path d="M0 0 C0 3.90838866 -1.50567876 5.11594107 -4 8 C-4.99 7.01 -5.98 6.02 -7 5 C-6.030625 4.360625 -5.06125 3.72125 -4.0625 3.0625 C-1.23963731 1.3034741 -1.23963731 1.3034741 0 0 Z " fill="#BB2677" transform="translate(302,158)"/>
<path d="M0 0 C1.46726798 3.81489674 0.43336419 6.29011622 -1 10 C-1.66 10 -2.32 10 -3 10 C-2.39009109 6.44219804 -1.4216319 3.3171411 0 0 Z " fill="#C05A49" transform="translate(253,96)"/>
<path d="M0 0 C1.65 0.33 3.3 0.66 5 1 C5 2.32 5 3.64 5 5 C3.02 4.34 1.04 3.68 -1 3 C-0.67 2.01 -0.34 1.02 0 0 Z " fill="#F28017" transform="translate(267,84)"/>
<path d="M0 0 C2.64 0.33 5.28 0.66 8 1 C4.36576791 3.32590854 1.22911669 3.16265833 -3 3 C-2.01 2.67 -1.02 2.34 0 2 C0 1.34 0 0.68 0 0 Z " fill="#07101A" transform="translate(373,186)"/>
<path d="M0 0 C1.98 0 3.96 0 6 0 C6 0.99 6 1.98 6 3 C6.66 3.33 7.32 3.66 8 4 C2.25 3.125 2.25 3.125 0 2 C0 1.34 0 0.68 0 0 Z " fill="#0F1924" transform="translate(346,180)"/>
<path d="M0 0 C0.99 0 1.98 0 3 0 C3.66 1.65 4.32 3.3 5 5 C2.13275314 4.42655063 1.1385485 4.1385485 -1 2 C-0.67 1.34 -0.34 0.68 0 0 Z " fill="#4E3172" transform="translate(245,171)"/>
<path d="M0 0 C1.98 0 3.96 0 6 0 C4.71034824 1.37562854 3.37310707 2.70766393 2 4 C1.34 4 0.68 4 0 4 C0 2.68 0 1.36 0 0 Z " fill="#1B2433" transform="translate(83,171)"/>
<path d="M0 0 C0 0.66 0 1.32 0 2 C-2.8125 2.625 -2.8125 2.625 -6 3 C-6.99 2.34 -7.98 1.68 -9 1 C-6.04335481 -0.4783226 -3.25770263 -0.06032783 0 0 Z " fill="#1F2638" transform="translate(378,170)"/>
<path d="M0 0 C0.99 0.33 1.98 0.66 3 1 C2.8125 2.875 2.8125 2.875 2 5 C-0.5625 6.25 -0.5625 6.25 -3 7 C-2.690625 6.401875 -2.38125 5.80375 -2.0625 5.1875 C-0.89790296 2.91043228 -0.89790296 2.91043228 0 0 Z " fill="#182539" transform="translate(537,164)"/>
<path d="M0 0 C0.66 0 1.32 0 2 0 C2 0.66 2 1.32 2 2 C2.99 2 3.98 2 5 2 C5 3.65 5 5.3 5 7 C4.34 6.67 3.68 6.34 3 6 C3 5.34 3 4.68 3 4 C2.34 4 1.68 4 1 4 C0.67 2.68 0.34 1.36 0 0 Z " fill="#D46034" transform="translate(275,140)"/>
<path d="M0 0 C3 1 3 1 3 1 Z " fill="#000015" transform="translate(476,152)"/>
<path d="" fill="#000000" transform="translate(0,0)"/>
<path d="" fill="#000000" transform="translate(0,0)"/>
<path d="" fill="#000040" transform="translate(0,0)"/>
<path d="" fill="#333366" transform="translate(0,0)"/>
<path d="" fill="#555555" transform="translate(0,0)"/>
<path d="" fill="#000000" transform="translate(0,0)"/>
<path d="" fill="#000000" transform="translate(0,0)"/>
<path d="" fill="#000080" transform="translate(0,0)"/>
<path d="" fill="#000000" transform="translate(0,0)"/>
<path d="" fill="#000000" transform="translate(0,0)"/>
<path d="" fill="#000000" transform="translate(0,0)"/>
<path d="" fill="#000000" transform="translate(0,0)"/>
<path d="" fill="#003333" transform="translate(0,0)"/>
<path d="" fill="#000000" transform="translate(0,0)"/>
<path d="" fill="#000000" transform="translate(0,0)"/>
<path d="" fill="#000000" transform="translate(0,0)"/>
<path d="" fill="#000000" transform="translate(0,0)"/>
<path d="" fill="#000000" transform="translate(0,0)"/>
<path d="" fill="#000000" transform="translate(0,0)"/>
<path d="" fill="#000000" transform="translate(0,0)"/>
<path d="" fill="#000000" transform="translate(0,0)"/>
<path d="" fill="#000080" transform="translate(0,0)"/>
<path d="" fill="#000000" transform="translate(0,0)"/>
<path d="" fill="#000000" transform="translate(0,0)"/>
<path d="" fill="#000000" transform="translate(0,0)"/>
<path d="" fill="#000000" transform="translate(0,0)"/>
<path d="" fill="#404040" transform="translate(0,0)"/>
<path d="" fill="#800080" transform="translate(0,0)"/>
<path d="" fill="#000000" transform="translate(0,0)"/>
<path d="" fill="#000000" transform="translate(0,0)"/>
<path d="" fill="#000000" transform="translate(0,0)"/>
<path d="" fill="#000033" transform="translate(0,0)"/>
<path d="" fill="#000000" transform="translate(0,0)"/>
<path d="" fill="#000000" transform="translate(0,0)"/>
<path d="" fill="#000000" transform="translate(0,0)"/>
<path d="" fill="#000000" transform="translate(0,0)"/>
<path d="" fill="#000000" transform="translate(0,0)"/>
<path d="" fill="#000000" transform="translate(0,0)"/>
<path d="" fill="#000000" transform="translate(0,0)"/>
<path d="" fill="#000000" transform="translate(0,0)"/>
<path d="" fill="#003333" transform="translate(0,0)"/>
<path d="" fill="#000000" transform="translate(0,0)"/>
<path d="" fill="#2A2A2A" transform="translate(0,0)"/>
</svg>
